<?xml version="1.0" encoding="utf-8"?>
<!-- Generator: Adobe Illustrator 25.4.0, SVG Export Plug-In . SVG Version: 6.00 Build 0)  -->
<svg version="1.1" id="Layer_1" xmlns="http://www.w3.org/2000/svg" xmlns:xlink="http://www.w3.org/1999/xlink" x="0px" y="0px"
	 viewBox="0 0 30.8 390.3" style="enable-background:new 0 0 30.8 390.3;" xml:space="preserve">
<style type="text/css">
	.st0{opacity:0.7451;fill:none;stroke:#000000;stroke-width:1.7317;stroke-miterlimit:10;enable-background:new    ;}
	.st1{opacity:0.722;fill:none;stroke:#000000;stroke-width:1.7073;stroke-miterlimit:10;enable-background:new    ;}
	.st2{opacity:0.6988;fill:none;stroke:#000000;stroke-width:1.6829;stroke-miterlimit:10;enable-background:new    ;}
	.st3{opacity:0.6756;fill:none;stroke:#000000;stroke-width:1.6585;stroke-miterlimit:10;enable-background:new    ;}
	.st4{opacity:0.6524;fill:none;stroke:#000000;stroke-width:1.6341;stroke-miterlimit:10;enable-background:new    ;}
	.st5{opacity:0.6293;fill:none;stroke:#000000;stroke-width:1.6098;stroke-miterlimit:10;enable-background:new    ;}
	.st6{opacity:0.6061;fill:none;stroke:#000000;stroke-width:1.5854;stroke-miterlimit:10;enable-background:new    ;}
	.st7{opacity:0.5829;fill:none;stroke:#000000;stroke-width:1.561;stroke-miterlimit:10;enable-background:new    ;}
	.st8{opacity:0.5598;fill:none;stroke:#000000;stroke-width:1.5366;stroke-miterlimit:10;enable-background:new    ;}
	.st9{opacity:0.5366;fill:none;stroke:#000000;stroke-width:1.5122;stroke-miterlimit:10;enable-background:new    ;}
	.st10{opacity:0.5134;fill:none;stroke:#000000;stroke-width:1.4878;stroke-miterlimit:10;enable-background:new    ;}
	.st11{opacity:0.4902;fill:none;stroke:#000000;stroke-width:1.4634;stroke-miterlimit:10;enable-background:new    ;}
	.st12{opacity:0.4671;fill:none;stroke:#000000;stroke-width:1.439;stroke-miterlimit:10;enable-background:new    ;}
	.st13{opacity:0.4439;fill:none;stroke:#000000;stroke-width:1.4146;stroke-miterlimit:10;enable-background:new    ;}
	.st14{opacity:0.4207;fill:none;stroke:#000000;stroke-width:1.3902;stroke-miterlimit:10;enable-background:new    ;}
	.st15{opacity:0.3976;fill:none;stroke:#000000;stroke-width:1.3659;stroke-miterlimit:10;enable-background:new    ;}
	.st16{opacity:0.3744;fill:none;stroke:#000000;stroke-width:1.3415;stroke-miterlimit:10;enable-background:new    ;}
	.st17{opacity:0.3512;fill:none;stroke:#000000;stroke-width:1.3171;stroke-miterlimit:10;enable-background:new    ;}
	.st18{opacity:0.328;fill:none;stroke:#000000;stroke-width:1.2927;stroke-miterlimit:10;enable-background:new    ;}
	.st19{opacity:0.3049;fill:none;stroke:#000000;stroke-width:1.2683;stroke-miterlimit:10;enable-background:new    ;}
	.st20{opacity:0.2817;fill:none;stroke:#000000;stroke-width:1.2439;stroke-miterlimit:10;enable-background:new    ;}
	.st21{opacity:0.2585;fill:none;stroke:#000000;stroke-width:1.2195;stroke-miterlimit:10;enable-background:new    ;}
	.st22{opacity:0.2354;fill:none;stroke:#000000;stroke-width:1.1951;stroke-miterlimit:10;enable-background:new    ;}
	.st23{opacity:0.2122;fill:none;stroke:#000000;stroke-width:1.1707;stroke-miterlimit:10;enable-background:new    ;}
	.st24{opacity:0.189;fill:none;stroke:#000000;stroke-width:1.1463;stroke-miterlimit:10;enable-background:new    ;}
</style>
<polyline class="st0" points="30.4,374 15.4,389 0.4,374 "/>
<polyline class="st1" points="30.4,358.4 15.4,373.4 0.4,358.4 "/>
<polyline class="st2" points="30.4,342.8 15.4,357.9 0.4,342.8 "/>
<polyline class="st3" points="30.4,327.3 15.4,342.3 0.4,327.3 "/>
<polyline class="st4" points="30.4,311.7 15.4,326.7 0.4,311.7 "/>
<polyline class="st5" points="30.4,296.1 15.4,311.2 0.4,296.1 "/>
<polyline class="st6" points="30.4,280.6 15.4,295.6 0.4,280.6 "/>
<polyline class="st7" points="30.4,265 15.4,280.1 0.4,265 "/>
<polyline class="st8" points="30.4,249.5 15.4,264.5 0.4,249.5 "/>
<polyline class="st9" points="30.4,233.9 15.4,248.9 0.4,233.9 "/>
<polyline class="st10" points="30.4,218.3 15.4,233.4 0.4,218.3 "/>
<polyline class="st11" points="30.4,202.8 15.4,217.8 0.4,202.8 "/>
<polyline class="st12" points="30.4,187.2 15.4,202.2 0.4,187.2 "/>
<polyline class="st13" points="30.4,171.7 15.4,186.7 0.4,171.7 "/>
<polyline class="st14" points="30.4,156.1 15.4,171.1 0.4,156.1 "/>
<polyline class="st15" points="30.4,140.5 15.4,155.6 0.4,140.5 "/>
<polyline class="st16" points="30.4,125 15.4,140 0.4,125 "/>
<polyline class="st17" points="30.4,109.4 15.4,124.4 0.4,109.4 "/>
<polyline class="st18" points="30.4,93.8 15.4,108.9 0.4,93.8 "/>
<polyline class="st19" points="30.4,78.3 15.4,93.3 0.4,78.3 "/>
<polyline class="st20" points="30.4,62.7 15.4,77.8 0.4,62.7 "/>
<polyline class="st21" points="30.4,47.2 15.4,62.2 0.4,47.2 "/>
<polyline class="st22" points="30.4,31.6 15.4,46.6 0.4,31.6 "/>
<polyline class="st23" points="30.4,16 15.4,31.1 0.4,16 "/>
<polyline class="st24" points="30.4,0.5 15.4,15.5 0.4,0.5 "/>
</svg>
