<?xml version="1.0" encoding="utf-8"?>
<!-- Generator: Adobe Illustrator 25.4.0, SVG Export Plug-In . SVG Version: 6.00 Build 0)  -->
<svg version="1.1" id="Layer_1" xmlns="http://www.w3.org/2000/svg" xmlns:xlink="http://www.w3.org/1999/xlink" x="0px" y="0px"
	 viewBox="0 0 1000 200" style="enable-background:new 0 0 1000 200;" xml:space="preserve">
<rect x="10.61" width="7.73" height="200"/>
<rect x="31.87" width="7.73" height="200"/>
<rect x="53.13" width="7.73" height="145.07"/>
<rect x="106.03" width="7.73" height="145.07"/>
<rect x="72.78" width="20.94" height="145.07"/>
<rect x="423.97" width="26.86" height="145.07"/>
<rect x="648.12" width="21.87" height="145.07"/>
<rect x="834.16" width="28.12" height="145.07"/>
<rect x="124.29" width="7.73" height="145.07"/>
<rect x="178.19" width="7.73" height="145.07"/>
<rect x="154.03" width="14.5" height="145.07"/>
<rect x="243.27" width="16.93" height="145.07"/>
<rect x="290.62" width="16.93" height="145.07"/>
<rect x="524.74" width="15.09" height="145.07"/>
<rect x="758.3" width="15.09" height="145.07"/>
<rect x="887.8" width="15.09" height="145.07"/>
<rect x="196.45" width="7.73" height="145.07"/>
<rect x="223.84" width="7.73" height="145.07"/>
<rect x="321.16" width="7.73" height="145.07"/>
<rect x="341.45" width="7.73" height="145.07"/>
<rect x="361.75" width="7.73" height="145.07"/>
<rect x="382.04" width="7.73" height="145.07"/>
<rect x="402.34" width="7.73" height="145.07"/>
<rect x="463.95" width="7.73" height="200"/>
<rect x="484.24" width="7.73" height="200"/>
<rect x="504.54" width="7.73" height="145.07"/>
<rect x="555.76" width="7.73" height="145.07"/>
<rect x="596.84" width="7.73" height="145.07"/>
<rect x="615.68" width="7.73" height="145.07"/>
<rect x="684.06" width="7.73" height="145.07"/>
<rect x="702.9" width="7.73" height="145.07"/>
<rect x="917.29" width="7.73" height="145.07"/>
<rect x="937.43" width="7.73" height="145.07"/>
<rect x="957.56" width="7.73" height="200"/>
<rect x="977.69" width="7.73" height="200"/>
<rect x="813.08" width="7.73" height="145.07"/>
<rect x="740.35" width="7.73" height="145.07"/>
<rect x="782.55" width="7.73" height="145.07"/>
<g>
	<path d="M97.49,175.99v15.14h-5.91v-35.55h23.1v4.86H97.49v10.72h15.04v4.83H97.49z"/>
	<path d="M133.58,177.33v13.79h-5.86v-35.55H139c1.84,0.02,3.53,0.25,5.08,0.71c1.55,0.46,2.88,1.12,4,2
		c1.11,0.9,1.97,2.01,2.59,3.33c0.62,1.33,0.93,2.88,0.93,4.65c0,1.22-0.16,2.33-0.48,3.32c-0.32,0.99-0.76,1.89-1.33,2.69
		c-0.57,0.8-1.25,1.5-2.05,2.1c-0.8,0.6-1.68,1.12-2.66,1.56l7.59,14.87v0.32h-6.27l-6.81-13.79H133.58z M139.07,172.55
		c1.04-0.02,1.98-0.17,2.82-0.48c0.84-0.3,1.55-0.74,2.14-1.31c0.52-0.49,0.93-1.09,1.22-1.81c0.29-0.72,0.44-1.53,0.44-2.44
		c0-1.03-0.16-1.92-0.48-2.7c-0.32-0.77-0.79-1.42-1.4-1.94c-0.57-0.49-1.26-0.86-2.08-1.11c-0.81-0.25-1.73-0.39-2.73-0.4h-5.42
		v12.18H139.07z"/>
	<path d="M187.87,179.87c-0.25,1.33-0.61,2.6-1.09,3.78c-0.5,1.19-1.13,2.28-1.88,3.28c-0.75,1-1.61,1.86-2.59,2.58
		c-0.94,0.65-1.99,1.16-3.14,1.54s-2.4,0.56-3.77,0.56c-1.42,0-2.71-0.2-3.89-0.6c-1.18-0.4-2.23-0.95-3.16-1.65
		c-0.94-0.72-1.77-1.58-2.48-2.59c-0.71-1.01-1.3-2.12-1.77-3.32c-0.46-1.16-0.8-2.39-1.03-3.7c-0.23-1.31-0.34-2.66-0.34-4.04
		v-4.69c0-1.45,0.12-2.85,0.37-4.2c0.24-1.35,0.61-2.63,1.1-3.83c0.47-1.16,1.05-2.22,1.75-3.19c0.69-0.97,1.51-1.81,2.45-2.53
		c0.91-0.7,1.95-1.24,3.11-1.62c1.16-0.38,2.45-0.57,3.85-0.57c1.42,0,2.72,0.2,3.91,0.59c1.19,0.39,2.25,0.94,3.2,1.64
		c0.94,0.7,1.77,1.52,2.47,2.47c0.7,0.94,1.29,1.98,1.76,3.1c0.52,1.21,0.91,2.49,1.17,3.87c0.26,1.38,0.39,2.8,0.39,4.28v4.69
		C188.25,177.15,188.12,178.54,187.87,179.87z M182.18,168.35c-0.09-0.86-0.24-1.68-0.45-2.47c-0.24-0.89-0.57-1.71-0.96-2.45
		c-0.4-0.74-0.88-1.37-1.45-1.89c-0.5-0.46-1.08-0.81-1.73-1.07c-0.65-0.26-1.39-0.39-2.22-0.39c-0.8,0-1.51,0.13-2.15,0.38
		c-0.63,0.25-1.19,0.6-1.66,1.04c-0.57,0.54-1.05,1.18-1.44,1.92c-0.39,0.74-0.69,1.57-0.9,2.48c-0.2,0.78-0.34,1.61-0.43,2.48
		c-0.09,0.87-0.13,1.75-0.13,2.62v4.74c0,0.86,0.04,1.72,0.12,2.56c0.08,0.85,0.22,1.66,0.42,2.44c0.21,0.88,0.5,1.7,0.87,2.45
		c0.37,0.76,0.81,1.4,1.33,1.92c0.5,0.49,1.09,0.88,1.75,1.16c0.66,0.29,1.42,0.43,2.28,0.43c0.83,0,1.58-0.14,2.26-0.42
		c0.68-0.28,1.26-0.65,1.75-1.12c0.57-0.54,1.05-1.18,1.43-1.92c0.38-0.74,0.69-1.56,0.92-2.45c0.2-0.78,0.34-1.6,0.43-2.45
		c0.09-0.86,0.14-1.72,0.16-2.6v-4.74C182.32,170.09,182.27,169.21,182.18,168.35z"/>
	<path d="M217.72,191.12l-11.55-24.46l-0.02,24.46h-5.93v-35.55h5.96l11.47,24.37l0.05-24.37h5.91v35.55H217.72z"/>
	<path d="M251.42,160.44v30.69h-5.83v-30.69H234.7v-4.86h27.69v4.86H251.42z"/>
	<path d="M276.25,177.87v-4.74h19.65v4.74H276.25z"/>
	<path d="M316.37,175.18v11.11h17.16v4.83h-23.05v-35.55h22.92v4.86h-17.04v10.01h14.7v4.74H316.37z"/>
	<path d="M363.74,191.12l-11.55-24.46l-0.02,24.46h-5.93v-35.55h5.96l11.47,24.37l0.05-24.37h5.91v35.55H363.74z"/>
	<path d="M382.91,155.58h8.79c1.53,0,2.97,0.17,4.32,0.53c1.35,0.35,2.58,0.83,3.69,1.45c1.2,0.63,2.27,1.43,3.21,2.39
		c0.94,0.96,1.72,2.04,2.36,3.22c0.65,1.24,1.16,2.6,1.51,4.08c0.36,1.48,0.54,3.06,0.54,4.74v2.78c0,1.61-0.17,3.14-0.5,4.58
		c-0.33,1.44-0.81,2.75-1.43,3.94c-0.6,1.16-1.33,2.21-2.19,3.15c-0.85,0.94-1.8,1.75-2.84,2.42c-1.17,0.73-2.47,1.29-3.89,1.68
		c-1.42,0.39-2.95,0.59-4.58,0.59h-8.98V155.58z M388.84,186.36h3.05c1.04,0,2-0.13,2.87-0.38c0.87-0.25,1.66-0.61,2.36-1.09
		c0.72-0.49,1.35-1.1,1.92-1.84c0.56-0.74,1.02-1.59,1.38-2.55c0.31-0.81,0.54-1.7,0.71-2.66c0.16-0.96,0.24-1.99,0.24-3.08v-2.83
		c0-1.07-0.08-2.09-0.24-3.05c-0.16-0.96-0.4-1.85-0.71-2.66c-0.39-0.99-0.91-1.89-1.56-2.7c-0.65-0.81-1.42-1.46-2.32-1.97
		c-0.65-0.37-1.38-0.66-2.2-0.87c-0.81-0.2-1.69-0.31-2.64-0.33h-2.86V186.36z"/>
</g>
<g>
	<path d="M563.86,155.58h8.79c1.53,0,2.97,0.17,4.32,0.53c1.35,0.35,2.58,0.83,3.69,1.45c1.2,0.63,2.27,1.43,3.21,2.39
		c0.94,0.96,1.72,2.04,2.36,3.22c0.65,1.24,1.16,2.6,1.51,4.08c0.36,1.48,0.54,3.06,0.54,4.74v2.78c0,1.61-0.17,3.14-0.5,4.58
		c-0.33,1.44-0.81,2.75-1.43,3.94c-0.6,1.16-1.33,2.21-2.19,3.15c-0.85,0.94-1.8,1.75-2.84,2.42c-1.17,0.73-2.47,1.29-3.89,1.68
		s-2.95,0.59-4.58,0.59h-8.98V155.58z M569.8,186.36h3.05c1.04,0,2-0.13,2.87-0.38c0.87-0.25,1.66-0.61,2.36-1.09
		c0.72-0.49,1.35-1.1,1.92-1.84c0.56-0.74,1.02-1.59,1.38-2.55c0.31-0.81,0.54-1.7,0.71-2.66c0.16-0.96,0.24-1.99,0.24-3.08v-2.83
		c0-1.07-0.08-2.09-0.24-3.05c-0.16-0.96-0.4-1.85-0.71-2.66c-0.39-0.99-0.91-1.89-1.56-2.7c-0.65-0.81-1.42-1.46-2.32-1.97
		c-0.65-0.37-1.38-0.66-2.2-0.87c-0.81-0.2-1.69-0.31-2.64-0.33h-2.86V186.36z"/>
	<path d="M606.84,175.18v11.11H624v4.83h-23.05v-35.55h22.92v4.86h-17.04v10.01h14.7v4.74H606.84z"/>
	<path d="M634.68,155.58h6.42l6.76,24.61l0.59,2.12l0.61-2.15l6.81-24.58h6.4l-10.94,35.55h-5.71L634.68,155.58z"/>
	<path d="M679.85,175.18v11.11h17.16v4.83h-23.05v-35.55h22.92v4.86h-17.04v10.01h14.7v4.74H679.85z"/>
	<path d="M733.52,186.29v4.83h-22.85v-35.55h5.88v30.71H733.52z"/>
	<path d="M770.38,179.87c-0.25,1.33-0.61,2.6-1.09,3.78c-0.5,1.19-1.13,2.28-1.88,3.28c-0.75,1-1.61,1.86-2.59,2.58
		c-0.94,0.65-1.99,1.16-3.14,1.54s-2.4,0.56-3.77,0.56c-1.42,0-2.71-0.2-3.89-0.6c-1.18-0.4-2.23-0.95-3.16-1.65
		c-0.94-0.72-1.77-1.58-2.48-2.59c-0.71-1.01-1.3-2.12-1.77-3.32c-0.46-1.16-0.8-2.39-1.03-3.7c-0.23-1.31-0.34-2.66-0.34-4.04
		v-4.69c0-1.45,0.12-2.85,0.37-4.2c0.24-1.35,0.61-2.63,1.1-3.83c0.47-1.16,1.05-2.22,1.75-3.19c0.69-0.97,1.51-1.81,2.45-2.53
		c0.91-0.7,1.95-1.24,3.11-1.62c1.16-0.38,2.45-0.57,3.85-0.57c1.42,0,2.72,0.2,3.91,0.59c1.19,0.39,2.25,0.94,3.2,1.64
		c0.94,0.7,1.77,1.52,2.47,2.47c0.7,0.94,1.29,1.98,1.76,3.1c0.52,1.21,0.91,2.49,1.17,3.87c0.26,1.38,0.39,2.8,0.39,4.28v4.69
		C770.75,177.15,770.63,178.54,770.38,179.87z M764.69,168.35c-0.09-0.86-0.24-1.68-0.45-2.47c-0.24-0.89-0.57-1.71-0.96-2.45
		c-0.4-0.74-0.88-1.37-1.45-1.89c-0.5-0.46-1.08-0.81-1.73-1.07c-0.65-0.26-1.39-0.39-2.22-0.39c-0.8,0-1.51,0.13-2.15,0.38
		c-0.63,0.25-1.19,0.6-1.66,1.04c-0.57,0.54-1.05,1.18-1.44,1.92c-0.39,0.74-0.69,1.57-0.9,2.48c-0.2,0.78-0.34,1.61-0.43,2.48
		c-0.09,0.87-0.13,1.75-0.13,2.62v4.74c0,0.86,0.04,1.72,0.12,2.56c0.08,0.85,0.22,1.66,0.42,2.44c0.21,0.88,0.5,1.7,0.87,2.45
		c0.37,0.76,0.81,1.4,1.33,1.92c0.5,0.49,1.09,0.88,1.75,1.16c0.66,0.29,1.42,0.43,2.28,0.43c0.83,0,1.58-0.14,2.26-0.42
		c0.68-0.28,1.26-0.65,1.75-1.12c0.57-0.54,1.04-1.18,1.43-1.92c0.38-0.74,0.69-1.56,0.92-2.45c0.2-0.78,0.34-1.6,0.43-2.45
		c0.09-0.86,0.14-1.72,0.16-2.6v-4.74C764.83,170.09,764.78,169.21,764.69,168.35z"/>
	<path d="M789.46,191.12h-5.86v-35.55h11.89c1.79,0.02,3.44,0.29,4.94,0.81c1.51,0.52,2.8,1.26,3.89,2.22
		c1.09,0.96,1.94,2.12,2.54,3.49c0.6,1.37,0.9,2.91,0.9,4.61c0,1.64-0.3,3.13-0.9,4.46c-0.6,1.33-1.45,2.46-2.54,3.41
		c-1.09,0.96-2.39,1.7-3.89,2.22c-1.51,0.52-3.15,0.78-4.94,0.78h-6.03V191.12z M795.49,172.79c0.99-0.02,1.88-0.17,2.67-0.48
		c0.79-0.3,1.46-0.72,2.01-1.26c0.55-0.54,0.97-1.17,1.26-1.9s0.43-1.53,0.43-2.39c0-0.94-0.14-1.8-0.43-2.58
		c-0.29-0.77-0.7-1.44-1.26-2.01c-0.55-0.57-1.23-1.01-2.01-1.32c-0.79-0.31-1.68-0.47-2.67-0.49h-6.03v12.43H795.49z"/>
	<path d="M825.87,175.18v11.11h17.16v4.83h-23.05v-35.55h22.92v4.86h-17.04v10.01h14.7v4.74H825.87z"/>
	<path d="M862.11,177.33v13.79h-5.86v-35.55h11.28c1.84,0.02,3.53,0.25,5.08,0.71c1.55,0.46,2.88,1.12,4,2
		c1.11,0.9,1.97,2.01,2.59,3.33c0.62,1.33,0.93,2.88,0.93,4.65c0,1.22-0.16,2.33-0.48,3.32c-0.32,0.99-0.76,1.89-1.33,2.69
		c-0.57,0.8-1.25,1.5-2.05,2.1c-0.8,0.6-1.68,1.12-2.66,1.56l7.59,14.87v0.32h-6.27l-6.81-13.79H862.11z M867.6,172.55
		c1.04-0.02,1.98-0.17,2.82-0.48c0.84-0.3,1.55-0.74,2.14-1.31c0.52-0.49,0.93-1.09,1.22-1.81c0.29-0.72,0.44-1.53,0.44-2.44
		c0-1.03-0.16-1.92-0.48-2.7c-0.32-0.77-0.79-1.42-1.4-1.94c-0.57-0.49-1.26-0.86-2.08-1.11c-0.81-0.25-1.73-0.39-2.73-0.4h-5.42
		v12.18H867.6z"/>
</g>
</svg>
