<?xml version="1.0" encoding="utf-8"?>
<!-- Generator: Adobe Illustrator 25.4.0, SVG Export Plug-In . SVG Version: 6.00 Build 0)  -->
<svg version="1.1" id="Layer_1" xmlns="http://www.w3.org/2000/svg" xmlns:xlink="http://www.w3.org/1999/xlink" x="0px" y="0px"
	 viewBox="0 0 700 700" style="enable-background:new 0 0 700 700;" xml:space="preserve">
<style type="text/css">
	.st0{fill:#53A7D8;}
	.st1{fill:#FEFEFE;}
</style>
<path class="st0" d="M130.7,0h438.7C641.5,0,700,58.5,700,130.7v438.7c0,72.2-58.5,130.7-130.7,130.7H130.7
	C58.5,700,0,641.5,0,569.3V130.7C0,58.5,58.5,0,130.7,0z"/>
<path class="st1" d="M366.6,446.3c37.7-48.1,72.4-97.8,84.9-159.6c5.8-28.8-8.5-47.9-31.3-61.9c-11.7-7.2-11.6-12.9-1.4-21.4
	c16.5-13.7,34.9-21.8,56.6-21c28.5,1,46.1,18.8,46.8,47.3c0.7,32.7-11.6,61.8-26.4,89.8c-35.9,67.9-84.2,127.3-130.5,188.1
	c-7.7,10.1-18.3,8.3-28.1,9.1c-42.6,3.6-42.7,3.4-50.1-38.2c-13.3-74.6-26.7-149.2-39.5-223.9c-2-11.4-5.6-17.3-18.4-16
	c-12,1.2-24.3,0.5-36.4,0.1c-5.3-0.2-13.9,2.8-13.6-6.9c0.3-8.1-5.6-19.3,7.5-23.1c31.4-9.1,62.4-20.2,94.7-25.6
	c22.9-3.9,36,5.9,40.1,28.8c13.4,74.6,26.5,149.3,39.7,223.9C361.7,439.1,360.9,443.1,366.6,446.3z"/>
</svg>
