<?xml version="1.0" encoding="utf-8"?>
<!-- Generator: Adobe Illustrator 25.4.0, SVG Export Plug-In . SVG Version: 6.00 Build 0)  -->
<svg version="1.1" id="Layer_1" xmlns="http://www.w3.org/2000/svg" xmlns:xlink="http://www.w3.org/1999/xlink" x="0px" y="0px"
	 viewBox="0 0 500 500" style="enable-background:new 0 0 500 500;" xml:space="preserve">
<style type="text/css">
	.st0{opacity:0.45;}
	.st1{fill:#FFFFFF;}
	.st2{fill:none;stroke:#FFFFFF;stroke-miterlimit:10;stroke-dasharray:3.0008,3.0008;}
</style>
<g id="LHQnhB_00000170262487222337569060000011326711546076567483_" class="st0">
	
		<image style="overflow:visible;enable-background:new    ;" width="564" height="798" id="LHQnhB" xlink:href="73AC693DD3ADC453.jpeg"  transform="matrix(0.7981 0 0 0.7981 -630.6323 -93.3999)">
	</image>
</g>
<g>
	<path class="st1" d="M250,1.2c33.6,0,66.2,6.6,96.8,19.5c29.6,12.5,56.2,30.5,79.1,53.3c22.9,22.8,40.8,49.5,53.3,79.1
		c13,30.7,19.5,63.3,19.5,96.8s-6.6,66.2-19.5,96.8c-12.5,29.6-30.5,56.2-53.3,79.1c-22.9,22.9-49.5,40.8-79.1,53.3
		c-30.7,13-63.3,19.5-96.8,19.5s-66.2-6.6-96.8-19.5c-29.6-12.5-56.2-30.5-79.1-53.3s-40.8-49.5-53.3-79.1
		C7.8,316.2,1.2,283.6,1.2,250s6.6-66.2,19.5-96.8c12.5-29.6,30.5-56.2,53.3-79.1s49.5-40.8,79.1-53.3C183.8,7.8,216.4,1.2,250,1.2
		 M250,0C111.9,0,0,111.9,0,250s111.9,250,250,250s250-111.9,250-250S388.1,0,250,0L250,0z"/>
</g>
<g>
	<circle class="st2" cx="250" cy="250" r="209.2"/>
</g>
<g>
	<path class="st1" d="M250,65.8c24.9,0,49,4.9,71.7,14.5c21.9,9.3,41.6,22.6,58.6,39.5s30.2,36.6,39.5,58.6
		c9.6,22.7,14.5,46.8,14.5,71.7s-4.9,49-14.5,71.7c-9.3,21.9-22.6,41.6-39.5,58.6s-36.6,30.2-58.6,39.5
		c-22.7,9.6-46.8,14.5-71.7,14.5s-49-4.9-71.7-14.5c-21.9-9.3-41.6-22.6-58.6-39.5s-30.2-36.6-39.5-58.6
		C70.6,299,65.8,274.9,65.8,250s4.9-49,14.5-71.7c9.3-21.9,22.6-41.6,39.5-58.6s36.6-30.2,58.6-39.5C201,70.6,225.1,65.8,250,65.8
		 M250,65C147.8,65,65,147.8,65,250s82.8,185,185,185s185-82.8,185-185S352.2,65,250,65L250,65z"/>
</g>
<g>
	<path class="st1" d="M250,97.5c40.7,0,79,15.9,107.8,44.7c28.8,28.8,44.7,67.1,44.7,107.8s-15.9,79-44.7,107.8
		c-28.8,28.8-67.1,44.7-107.8,44.7s-79-15.9-107.8-44.7C113.4,329,97.5,290.7,97.5,250s15.9-79,44.7-107.8S209.3,97.5,250,97.5
		 M250,96.9c-84.6,0-153.1,68.5-153.1,153.1S165.4,403.1,250,403.1S403.1,334.5,403.1,250S334.5,96.9,250,96.9L250,96.9z"/>
</g>
<g>
	<path class="st1" d="M250,141.1C250,141.1,250,141.1,250,141.1C249.9,141.1,249.9,141.1,250,141.1c-0.1,0-0.1,0-0.1,0s0,0,0,0
		c0,0,0,0,0,0s0,0,0,0c0,0,0,0,0,0c0,0,0,0,0,0c0,0,0,0,0,0c0,0,0,0,0,0c0,0,0,0,0,0c0,0,0,0,0,0c0,0,0,0,0,0c0,0,0,0,0,0
		c0,0,0,0,0,0c0,0,0,0,0,0c0,0,0,0,0,0c0,0,0,0,0,0c0,0,0,0,0,0c0,0,0,0,0,0c0,0,0,0,0,0c0,0,0,0,0,0c0,0,0,0,0,0c0,0,0,0,0,0
		s0,0,0,0c0,0,0,0,0,0s0,0,0,0c-0.1,0-0.1,0-0.2,0h0c0,0,0,0,0,0h0c0,0,0,0,0,0h0c0,0,0,0,0,0h0c0,0,0,0,0,0h0c0,0,0,0,0,0h0
		c0,0,0,0,0,0h0c0,0,0,0,0,0h0c0,0,0,0,0,0h0c0,0,0,0,0,0h0c0,0,0,0,0,0c0,0,0,0,0,0c-0.1,0-0.2,0-0.3,0l0,0c0,0,0,0,0,0h0
		c0,0,0,0,0,0h0c0,0,0,0,0,0h0c0,0,0,0,0,0h0c0,0,0,0,0,0h0c0,0,0,0,0,0h0c0,0,0,0,0,0h0c0,0,0,0,0,0h0c0,0,0,0,0,0s0,0,0,0
		c0,0,0,0,0,0s0,0,0,0c0,0,0,0,0,0s0,0,0,0c0,0,0,0,0,0c0,0,0,0,0,0c0,0,0,0,0,0s0,0,0,0s0,0,0,0c0,0,0,0,0,0s0,0,0,0c0,0,0,0,0,0h0
		c0,0,0,0,0,0h0c0,0,0,0,0,0h0c0,0,0,0,0,0c0,0,0,0,0,0s0,0,0,0l0,0c-0.2,0-0.4,0-0.6,0l0,1c1,0,2,0,3,0L250,141.1L250,141.1
		L250,141.1z M244,141.2c-0.4,0-0.8,0.1-1.3,0.1l0,0c0,0,0,0,0,0h0c0,0,0,0,0,0h0c0,0,0,0,0,0s0,0,0,0c0,0,0,0,0,0s0,0,0,0
		c0,0,0,0,0,0c0,0,0,0,0,0c0,0,0,0,0,0c0,0,0,0,0,0c0,0,0,0,0,0c0,0,0,0,0,0h0c0,0,0,0,0,0c0,0,0,0,0,0c-0.1,0-0.2,0-0.3,0l0,0
		c0,0,0,0,0,0l0,0c0,0,0,0,0,0l0,0c0,0,0,0,0,0l0,0c-0.1,0-0.3,0-0.4,0l0,0c0,0,0,0,0,0c0,0,0,0,0,0s0,0,0,0h0c0,0,0,0,0,0h0
		c0,0,0,0,0,0s0,0,0,0c0,0,0,0,0,0s0,0,0,0c0,0,0,0,0,0c0,0,0,0,0,0c0,0,0,0,0,0c0,0,0,0,0,0h0c-0.1,0-0.1,0-0.2,0l0.1,1
		c1-0.1,2-0.1,3-0.2L244,141.2L244,141.2z M238,141.7c-0.4,0.1-0.9,0.1-1.3,0.2l0,0c0,0,0,0,0,0h0c0,0,0,0,0,0h0c0,0,0,0,0,0h0
		c0,0,0,0,0,0s0,0,0,0c0,0,0,0,0,0c0,0,0,0,0,0c0,0,0,0,0,0c0,0,0,0,0,0s0,0,0,0c0,0,0,0,0,0h0c-0.4,0.1-0.9,0.1-1.3,0.2l0.1,1
		c1-0.1,2-0.3,2.9-0.4L238,141.7L238,141.7z M232.1,142.5c-0.2,0-0.5,0.1-0.7,0.1l0,0c0,0,0,0,0,0c0,0,0,0,0,0s0,0,0,0h0
		c0,0,0,0,0,0c0,0,0,0,0,0c0,0,0,0,0,0c0,0,0,0,0,0c0,0,0,0,0,0c0,0,0,0,0,0c0,0,0,0,0,0c0,0,0,0,0,0c0,0,0,0,0,0h0c0,0,0,0,0,0h0
		c0,0,0,0,0,0c0,0,0,0,0,0c0,0,0,0,0,0s0,0,0,0c0,0,0,0,0,0c0,0,0,0,0,0c0,0,0,0,0,0c0,0,0,0,0,0c0,0,0,0,0,0c0,0,0,0,0,0
		c0,0,0,0,0,0c0,0,0,0,0,0c0,0,0,0,0,0c0,0,0,0,0,0c0,0,0,0,0,0c0,0,0,0,0,0s0,0,0,0c0,0,0,0,0,0h0c0,0-0.1,0-0.1,0h0c0,0,0,0,0,0h0
		c0,0,0,0,0,0s0,0,0,0c0,0,0,0,0,0s0,0,0,0c0,0,0,0,0,0c0,0,0,0,0,0c0,0,0,0,0,0h0c0,0,0,0,0,0h0c0,0,0,0,0,0c0,0,0,0,0,0
		c-0.1,0-0.2,0-0.3,0.1l0,0c-0.2,0.1-0.5,0.1-0.8,0.1l0.2,1c1-0.2,1.9-0.4,2.9-0.5L232.1,142.5L232.1,142.5z M226.2,143.7
		c-0.1,0-0.1,0-0.1,0l0,0c0,0,0,0,0,0h0c0,0,0,0,0,0c0,0,0,0,0,0c0,0,0,0,0,0c0,0,0,0,0,0c0,0,0,0,0,0c0,0,0,0,0,0c0,0,0,0,0,0
		c0,0,0,0,0,0c0,0,0,0,0,0c0,0,0,0,0,0c0,0,0,0,0,0c0,0,0,0,0,0l0,0c0,0-0.1,0-0.1,0h0c0,0,0,0,0,0h0c0,0,0,0,0,0h0c0,0,0,0,0,0h0
		c0,0,0,0,0,0c0,0,0,0,0,0s0,0,0,0l0,0c-0.1,0-0.2,0.1-0.3,0.1l0,0c-0.2,0.1-0.5,0.1-0.7,0.2l0,0c0,0,0,0,0,0l0,0c0,0,0,0,0,0
		c0,0,0,0,0,0s0,0,0,0h0c0,0,0,0,0,0h0c0,0,0,0,0,0c0,0,0,0,0,0c-0.1,0-0.1,0-0.1,0h0c0,0,0,0,0,0c0,0,0,0,0,0c0,0,0,0,0,0
		c0,0,0,0,0,0c0,0,0,0,0,0c0,0,0,0,0,0c0,0,0,0,0,0c0,0,0,0,0,0c0,0,0,0,0,0c0,0,0,0,0,0h0c0,0,0,0,0,0l0,0c-0.1,0-0.3,0.1-0.4,0.1
		l0.2,1c1-0.2,1.9-0.5,2.9-0.7L226.2,143.7L226.2,143.7z M220.4,145.1C220.3,145.1,220.3,145.2,220.4,145.1L220.4,145.1
		c-0.1,0-0.1,0-0.1,0h0c0,0,0,0,0,0h0c0,0,0,0,0,0s0,0,0,0c0,0,0,0,0,0c-0.7,0.2-1.4,0.4-2,0.6c0,0,0,0,0,0s0,0,0,0h0c0,0,0,0,0,0
		c0,0,0,0,0,0c0,0,0,0,0,0c0,0,0,0,0,0c0,0,0,0,0,0c0,0,0,0,0,0h0c0,0,0,0,0,0l0,0c-0.1,0-0.2,0.1-0.4,0.1l0.3,0.9
		c0.9-0.3,1.9-0.6,2.9-0.9L220.4,145.1L220.4,145.1z M214.6,146.9c-0.7,0.2-1.4,0.5-2.1,0.8h0c0,0,0,0,0,0h0c0,0,0,0,0,0h0
		c0,0,0,0,0,0h0c0,0,0,0,0,0c0,0,0,0-0.1,0l0,0c0,0,0,0,0,0l0,0c0,0,0,0,0,0l0,0c-0.1,0.1-0.3,0.1-0.4,0.1l0.4,0.9
		c0.9-0.4,1.9-0.7,2.8-1L214.6,146.9L214.6,146.9z M209,149c-0.8,0.3-1.5,0.6-2.3,0.9l0,0c-0.2,0.1-0.3,0.1-0.5,0.2l0.4,0.9
		c0.9-0.4,1.8-0.8,2.7-1.2L209,149L209,149z M203.5,151.4c-0.2,0.1-0.4,0.2-0.6,0.3c0,0,0,0,0,0s0,0,0,0c0,0,0,0,0,0c0,0,0,0,0,0
		c0,0,0,0,0,0c0,0,0,0,0,0c0,0,0,0,0,0c0,0,0,0,0,0c0,0-0.1,0-0.1,0.1l0,0c-0.6,0.3-1.2,0.6-1.9,0.9l0.4,0.9
		c0.9-0.4,1.8-0.9,2.7-1.3L203.5,151.4L203.5,151.4z M198.2,154.2c-0.9,0.5-1.8,1-2.6,1.5l0.5,0.9c0.9-0.5,1.7-1,2.6-1.4
		L198.2,154.2L198.2,154.2z M193,157.2c-0.9,0.5-1.7,1.1-2.5,1.6l0.6,0.8c0.8-0.5,1.7-1.1,2.5-1.6L193,157.2L193,157.2z M188,160.4
		c-0.4,0.3-0.9,0.6-1.3,0.9c0,0,0,0,0,0c0,0,0,0,0,0c0,0,0,0,0,0c0,0,0,0,0,0c0,0,0,0,0,0c0,0,0,0,0,0c0,0,0,0,0,0l0,0
		c-0.3,0.2-0.7,0.5-1,0.7l0.6,0.8c0.8-0.6,1.6-1.2,2.4-1.7L188,160.4L188,160.4z M183.1,164c-0.6,0.5-1.3,1-1.9,1.5l0,0
		c-0.1,0-0.1,0.1-0.1,0.1l0,0c0,0,0,0,0,0l0,0c0,0,0,0,0,0l0,0c0,0,0,0,0,0c0,0,0,0,0,0c0,0,0,0,0,0c0,0,0,0,0,0c0,0,0,0,0,0
		c0,0,0,0,0,0l0,0c0,0,0,0,0,0h0c0,0,0,0,0,0l0,0l0.6,0.8c0.8-0.6,1.5-1.2,2.3-1.9L183.1,164L183.1,164z M178.5,167.8
		c-0.3,0.3-0.6,0.5-0.9,0.8l0,0c0,0,0,0,0,0l0,0c0,0,0,0,0,0l0,0c0,0-0.1,0.1-0.1,0.1c0,0,0,0,0,0s0,0,0,0l0,0c0,0,0,0,0,0l0,0
		c0,0,0,0,0,0c0,0,0,0,0,0c0,0,0,0,0,0c0,0,0,0,0,0l0,0c0,0,0,0,0,0l0,0c0,0-0.1,0-0.1,0.1l0,0c0,0,0,0,0,0l0,0c0,0,0,0,0,0l0,0
		c0,0,0,0,0,0l0,0c-0.3,0.2-0.6,0.5-0.8,0.8l0.7,0.7c0.7-0.7,1.5-1.3,2.2-2L178.5,167.8L178.5,167.8z M174.1,171.9
		c-0.2,0.2-0.4,0.4-0.6,0.6l0,0c0,0,0,0,0,0c0,0,0,0,0,0s0,0,0,0l0,0c0,0,0,0,0,0l0,0c0,0,0,0,0,0l0,0c0,0,0,0,0,0l0,0c0,0,0,0,0,0
		c0,0,0,0,0,0l0,0c0,0,0,0,0,0l0,0c0,0,0,0,0,0l0,0c0,0,0,0,0,0l0,0c0,0,0,0,0,0l0,0c0,0-0.1,0.1-0.1,0.1l0,0c0,0,0,0,0,0l0,0
		c0,0,0,0,0,0l0,0c-0.1,0.1-0.3,0.3-0.4,0.4l0,0c0,0,0,0,0,0l0,0c0,0,0,0,0,0c0,0,0,0,0,0s0,0,0,0l0,0c0,0-0.1,0.1-0.1,0.1l0,0
		c0,0,0,0,0,0c0,0,0,0,0,0l0,0c0,0,0,0,0,0c0,0,0,0,0,0s0,0,0,0c0,0,0,0,0,0c-0.1,0.1-0.2,0.2-0.3,0.3l0.7,0.7
		c0.7-0.7,1.4-1.4,2.1-2.1L174.1,171.9L174.1,171.9z M169.9,176.2c-0.7,0.7-1.4,1.5-2,2.2l0.8,0.7c0.6-0.7,1.3-1.5,2-2.2
		L169.9,176.2L169.9,176.2z M166,180.7L166,180.7C166,180.7,165.9,180.7,166,180.7L166,180.7C165.9,180.7,165.9,180.8,166,180.7
		L166,180.7C165.9,180.8,165.9,180.8,166,180.7C165.9,180.8,165.9,180.8,166,180.7c-0.1,0.1-0.1,0.1-0.1,0.1c0,0,0,0,0,0l0,0
		c0,0,0,0,0,0l0,0c0,0,0,0,0,0l0,0c0,0,0,0,0,0l0,0c0,0,0,0,0,0c0,0,0,0,0,0s0,0,0,0l0,0c0,0-0.1,0.1-0.1,0.1l0,0c0,0,0,0,0,0l0,0
		c0,0,0,0,0,0l0,0c-0.1,0.1-0.1,0.1-0.2,0.2l0,0c0,0,0,0,0,0l0,0c-0.1,0.1-0.1,0.1-0.1,0.2l0,0c0,0,0,0,0,0c0,0,0,0,0,0s0,0,0,0
		c0,0,0,0,0,0c0,0,0,0,0,0c0,0,0,0,0,0c0,0-0.1,0.1-0.1,0.1c0,0,0,0,0,0s0,0,0,0l0,0c0,0,0,0,0,0l0,0c0,0,0,0,0,0c0,0,0,0,0,0
		c0,0,0,0,0,0c0,0,0,0,0,0c0,0,0,0,0,0c0,0,0,0.1-0.1,0.1l0,0c0,0,0,0,0,0c0,0,0,0,0,0s0,0,0,0l0,0c0,0,0,0,0,0l0,0
		c-0.2,0.3-0.4,0.5-0.6,0.8l0.8,0.6c0.6-0.8,1.2-1.6,1.9-2.3L166,180.7L166,180.7z M162.3,185.4c-0.3,0.4-0.6,0.8-0.8,1.1l0,0
		c0,0,0,0,0,0l0,0c0,0,0,0,0,0c0,0,0,0,0,0c0,0,0,0,0,0l0,0c0,0,0,0.1-0.1,0.1c0,0,0,0,0,0c0,0,0,0,0,0c0,0,0,0,0,0l0,0c0,0,0,0,0,0
		c0,0,0,0,0,0c0,0,0,0,0,0l0,0c-0.2,0.3-0.5,0.7-0.7,1l0.8,0.6c0.6-0.8,1.1-1.6,1.7-2.4L162.3,185.4L162.3,185.4z M158.8,190.3
		c-0.2,0.4-0.5,0.7-0.7,1.1l0,0c0,0,0,0,0,0c0,0,0,0,0,0c0,0,0,0,0,0v0c0,0,0,0,0,0l0,0c0,0,0,0,0,0l0,0c0,0,0,0,0,0c0,0,0,0,0,0
		c0,0,0,0,0,0c0,0,0,0,0,0c0,0,0,0,0,0c0,0,0,0,0,0c0,0,0,0,0,0c0,0,0,0,0,0l0,0c0,0,0,0,0,0c0,0,0,0,0,0c0,0.1-0.1,0.1-0.1,0.2l0,0
		c0,0,0,0,0,0l0,0c-0.2,0.3-0.4,0.6-0.6,0.9l0.9,0.5c0.5-0.8,1.1-1.7,1.6-2.5L158.8,190.3L158.8,190.3z M155.7,195.4
		c-0.4,0.8-0.9,1.5-1.3,2.3l0,0c0,0,0,0,0,0l0,0c0,0,0,0,0,0l0,0c0,0,0,0.1-0.1,0.1l0,0c0,0,0,0,0,0c0,0,0,0,0,0c0,0,0,0,0,0
		c0,0,0,0,0,0c0,0,0,0,0,0c0,0,0,0,0,0c0,0,0,0,0,0c0,0,0,0,0,0c0,0,0,0,0,0l0.9,0.5c0.5-0.9,1-1.7,1.4-2.6L155.7,195.4L155.7,195.4
		z M152.8,200.7c-0.3,0.6-0.6,1.3-0.9,1.9l0,0c0,0,0,0.1-0.1,0.1c0,0,0,0,0,0c0,0,0,0,0,0c0,0,0,0,0,0c0,0,0,0,0,0c0,0,0,0,0,0v0
		c0,0,0,0,0,0l0,0c-0.1,0.2-0.2,0.3-0.2,0.5l0.9,0.4c0.4-0.9,0.9-1.8,1.3-2.7L152.8,200.7L152.8,200.7z M150.3,206.1
		c-0.1,0.3-0.3,0.6-0.4,0.9l0,0c0,0,0,0,0,0l0,0c0,0,0,0,0,0l0,0c0,0.1-0.1,0.1-0.1,0.2v0c0,0,0,0,0,0c0,0,0,0,0,0c0,0,0,0,0,0
		c0,0,0,0,0,0c0,0,0,0,0,0c0,0,0,0,0,0c0,0,0,0,0,0c0,0,0,0,0,0c0,0,0,0,0,0c0,0,0,0,0,0c0,0,0,0,0,0c0,0,0,0,0,0l0,0c0,0,0,0,0,0v0
		c0,0,0,0,0,0v0c0,0,0,0,0,0v0c0,0,0,0,0,0l0,0c0,0,0,0,0,0l0,0c-0.2,0.4-0.3,0.8-0.5,1.1l0.9,0.4c0.4-0.9,0.8-1.8,1.2-2.7
		L150.3,206.1L150.3,206.1z M148,211.7c-0.2,0.5-0.4,0.9-0.5,1.4l0,0c0,0,0,0,0,0v0c0,0,0,0,0,0c0,0,0,0,0,0s0,0,0,0c0,0,0,0,0,0
		c0,0.1,0,0.1-0.1,0.2v0c0,0,0,0,0,0v0c0,0,0,0,0,0c0,0,0,0,0,0c0,0,0,0,0,0c0,0,0,0,0,0c0,0,0,0,0,0v0c0,0,0,0,0,0v0
		c0,0,0,0.1,0,0.1c0,0,0,0,0,0s0,0,0,0v0c0,0,0,0,0,0v0c0,0,0,0,0,0c0,0,0,0,0,0c0,0,0,0,0,0v0c0,0,0,0,0,0v0c0,0,0,0,0,0l0,0
		c0,0.1,0,0.1-0.1,0.2l0,0c0,0,0,0,0,0l0,0c0,0,0,0,0,0l0,0c0,0.1-0.1,0.2-0.1,0.2l0.9,0.3c0.3-0.9,0.7-1.9,1-2.8L148,211.7
		L148,211.7z M146,217.4c-0.1,0.2-0.1,0.4-0.2,0.5l0,0c0,0,0,0,0,0l0,0c0,0,0,0,0,0v0c0,0,0,0,0,0l0,0c0,0,0,0.1,0,0.1l0,0
		c0,0,0,0,0,0v0c0,0,0,0,0,0v0c0,0,0,0,0,0s0,0,0,0c0,0,0,0,0,0s0,0,0,0c0,0,0,0,0,0c0,0,0,0,0,0c0,0,0,0,0,0c0,0,0,0,0,0
		c0,0,0,0,0,0c0,0,0,0,0,0v0c0,0,0,0,0,0.1c0,0,0,0,0,0c0,0,0,0,0,0c0,0,0,0,0,0c0,0,0,0,0,0c0,0,0,0,0,0c0,0,0,0,0,0s0,0,0,0
		c0,0,0,0,0,0c0,0,0,0,0,0c0,0,0,0,0,0c0,0,0,0,0,0c0,0,0,0,0,0v0c0,0,0,0,0,0l0,0c0,0,0,0.1,0,0.1v0c0,0,0,0,0,0c0,0,0,0,0,0
		c0,0,0,0,0,0c0,0,0,0,0,0c0,0,0,0,0,0c0,0,0,0,0,0c0,0,0,0,0,0c0,0,0,0,0,0c0,0,0,0,0,0s0,0,0,0c0,0,0,0,0,0v0c0,0,0,0,0,0v0
		c0,0,0,0.1,0,0.1v0c0,0,0,0,0,0v0c0,0,0,0,0,0v0c0,0,0,0,0,0v0c0,0,0,0,0,0v0c0,0,0,0,0,0v0c0,0,0,0,0,0v0c0,0.1,0,0.1,0,0.1l0,0
		c0,0,0,0,0,0c0,0,0,0,0,0s0,0,0,0c0,0,0,0,0,0s0,0,0,0c0,0,0,0,0,0s0,0,0,0l0,0c0,0.1-0.1,0.3-0.1,0.4l1,0.3
		c0.3-0.9,0.6-1.9,0.9-2.9L146,217.4L146,217.4z M144.4,223.1c0,0.2-0.1,0.3-0.1,0.5v0c0,0,0,0,0,0v0c0,0,0,0,0,0v0c0,0,0,0,0,0
		s0,0,0,0c0,0,0,0,0,0c0,0,0,0,0,0c0,0,0,0,0,0c0,0,0,0,0,0c0,0,0,0,0,0c0,0,0,0,0,0c0,0,0,0,0,0v0c0,0,0,0,0,0s0,0,0,0c0,0,0,0,0,0
		c0,0,0,0,0,0c0,0,0,0,0,0c0,0,0,0,0,0c0,0,0,0,0,0c0,0,0,0,0,0c0,0,0,0,0,0c0,0,0,0,0,0c0,0,0,0,0,0c0,0,0,0,0,0c0,0,0,0,0,0
		c0,0,0,0,0,0c0,0,0,0,0,0c0,0,0,0,0,0c0,0,0,0,0,0c0,0,0,0,0,0s0,0,0,0c0,0,0,0,0,0c0,0,0,0,0,0c0,0,0,0,0,0c0,0,0,0,0,0
		c0,0,0,0,0,0c0,0,0,0,0,0c0,0,0,0,0,0c0,0,0,0,0,0c0,0,0,0,0,0c0,0,0,0,0,0c0,0,0,0,0,0c0,0,0,0,0,0c0,0,0,0,0,0c0,0,0,0,0,0
		c0,0,0,0,0,0c0,0,0,0,0,0c0,0,0,0,0,0s0,0,0,0c0,0,0,0,0,0s0,0,0,0v0c0,0,0,0,0,0v0c0,0,0,0,0,0v0c0,0,0,0,0,0v0c0,0,0,0,0,0
		c0,0,0,0,0,0s0,0,0,0l0,0c-0.1,0.3-0.1,0.6-0.2,1l1,0.2c0.2-1,0.4-1.9,0.7-2.9L144.4,223.1L144.4,223.1z M143.1,229
		c-0.2,0.9-0.4,1.9-0.5,2.9v0c0,0,0,0,0,0c0,0,0,0,0,0c0,0,0,0,0,0v0l1,0.2c0.2-1,0.3-2,0.5-2.9L143.1,229L143.1,229z M142.1,234.9
		c-0.1,1-0.3,2-0.4,3l1,0.1c0.1-1,0.2-2,0.4-2.9L142.1,234.9L142.1,234.9z M141.4,240.9L141.4,240.9L141.4,240.9
		C141.4,240.9,141.4,240.9,141.4,240.9C141.4,240.9,141.4,240.9,141.4,240.9c0,0.1,0,0.1,0,0.1c0,0,0,0,0,0c0,0,0,0,0,0c0,0,0,0,0,0
		s0,0,0,0c0,0,0,0,0,0v0c0,0,0,0,0,0v0c0,0,0,0,0,0v0c0,0,0,0,0,0v0c0,0,0,0,0,0v0c0,0,0,0,0,0l0,0c0,0,0,0,0,0l0,0
		c0,0.3-0.1,0.6-0.1,0.9l0,0c0,0,0,0,0,0c0,0,0,0,0,0s0,0,0,0v0c0,0,0,0,0,0s0,0,0,0c0,0,0,0,0,0s0,0,0,0c0,0,0,0,0,0s0,0,0,0
		c0,0,0,0,0,0c0,0,0,0,0,0c0,0,0,0,0,0c0,0,0,0,0,0c0,0,0,0,0,0c0,0,0,0,0,0v0c0,0.4-0.1,0.8-0.1,1.2l1,0.1c0.1-1,0.1-2,0.2-3
		L141.4,240.9L141.4,240.9z M141.1,246.9c0,0.2,0,0.3,0,0.5l0,0c0,0,0,0,0,0v0c0,0,0,0,0,0s0,0,0,0c0,0,0,0,0,0s0,0,0,0c0,0,0,0,0,0
		c0,0,0,0,0,0v0c0,0,0,0,0,0l0,0c0,0.6,0,1.1,0,1.7l0,0c0,0,0,0,0,0v0c0,0,0,0,0,0c0,0,0,0,0,0s0,0,0,0c0,0,0,0,0,0v0c0,0,0,0,0,0
		c0,0,0,0,0,0c0,0.1,0,0.2,0,0.4h1c0-1,0-2,0-3L141.1,246.9L141.1,246.9z M142.1,252.8l-1,0c0,0.7,0,1.4,0.1,2l0,0c0,0,0,0,0,0l0,0
		c0,0,0,0,0,0c0,0,0,0,0,0s0,0,0,0c0,0,0,0,0,0s0,0,0,0v0c0,0,0,0,0,0v0c0,0,0,0,0,0s0,0,0,0c0,0,0,0,0,0c0,0,0,0.1,0,0.1l0,0
		c0,0,0,0,0,0l0,0c0,0,0,0,0,0l0,0c0,0,0,0,0,0l0,0c0,0.1,0,0.3,0,0.4l1-0.1C142.2,254.8,142.1,253.8,142.1,252.8L142.1,252.8z
		 M142.4,258.8l-1,0.1c0,0,0,0,0,0.1l0,0c0,0,0,0,0,0c0,0,0,0,0,0s0,0,0,0c0,0,0,0,0,0s0,0,0,0v0c0,0,0,0,0,0c0,0,0,0,0,0s0,0,0,0
		l0,0c0.1,0.9,0.2,1.8,0.3,2.7l1-0.1C142.6,260.8,142.5,259.8,142.4,258.8L142.4,258.8z M143.1,264.7l-1,0.1c0,0,0,0,0,0s0,0,0,0
		c0,0,0,0,0,0c0,0,0,0,0,0s0,0,0,0c0,0,0,0,0,0c0,0,0,0,0,0s0,0,0,0c0,0,0,0,0,0c0,0,0,0,0,0c0.1,0.9,0.3,1.8,0.4,2.8l1-0.2
		C143.3,266.7,143.2,265.7,143.1,264.7L143.1,264.7z M144,270.5l-1,0.2c0.2,1,0.4,2,0.6,2.9l1-0.2
		C144.4,272.5,144.2,271.5,144,270.5L144,270.5z M145.3,276.4l-1,0.2c0,0.1,0,0.2,0.1,0.2l0,0c0,0,0,0,0,0v0c0,0,0,0,0,0v0
		c0,0,0,0,0,0v0c0,0,0,0,0,0v0c0,0,0,0,0,0v0c0,0,0,0,0,0c0,0,0,0,0,0c0,0,0,0,0,0c0,0,0,0,0,0c0,0,0,0,0,0c0,0,0,0,0,0v0
		c0,0,0,0,0,0v0c0,0,0,0,0,0v0c0,0,0,0,0,0c0,0,0,0,0,0s0,0,0,0l0,0c0.2,0.7,0.4,1.4,0.6,2.1l1-0.3
		C145.8,278.3,145.6,277.3,145.3,276.4L145.3,276.4z M146.9,282.1l-0.9,0.3c0.1,0.3,0.2,0.6,0.3,1c0,0,0,0,0,0s0,0,0,0v0
		c0,0,0,0,0,0v0c0,0,0,0,0,0v0c0,0,0,0,0,0v0c0,0,0,0,0,0v0c0,0,0,0,0,0l0,0c0,0,0,0,0,0.1l0,0c0,0,0,0,0,0v0c0,0,0,0,0,0s0,0,0,0
		c0,0,0,0,0,0v0c0,0,0,0,0,0v0c0,0,0,0,0,0v0c0,0,0,0,0,0v0c0,0,0,0,0,0v0c0,0,0,0.1,0,0.1v0c0,0,0,0,0,0v0c0,0,0,0,0,0s0,0,0,0
		c0,0,0,0,0,0s0,0,0,0c0,0,0,0,0,0s0,0,0,0c0,0,0,0,0,0c0,0,0,0,0,0c0,0,0,0,0,0c0,0,0,0,0,0c0,0,0,0.1,0,0.1v0c0,0,0,0,0,0
		c0,0,0,0,0,0c0,0,0,0,0,0c0,0,0,0,0,0c0,0,0,0,0,0c0,0,0,0,0,0c0,0,0,0,0,0c0,0,0,0,0,0c0,0,0,0,0,0c0,0,0,0,0,0s0,0,0,0
		c0,0,0,0,0,0v0c0,0,0,0.1,0,0.1c0,0,0,0,0,0s0,0,0,0v0c0,0,0,0,0,0c0,0,0,0,0,0s0,0,0,0l0,0c0,0,0,0,0,0l0,0c0,0.1,0.1,0.2,0.1,0.3
		l0.9-0.3C147.5,284,147.2,283,146.9,282.1L146.9,282.1z M148.8,287.7l-0.9,0.4c0.1,0.2,0.2,0.5,0.3,0.8l0,0c0,0,0,0,0,0l0,0
		c0,0.1,0.1,0.1,0.1,0.2v0c0,0,0,0,0,0c0,0,0,0,0,0c0,0,0,0,0,0s0,0,0,0c0,0,0,0,0,0c0,0,0,0,0,0c0,0,0,0,0,0s0,0,0,0c0,0,0,0,0,0
		s0,0,0,0c0,0,0,0,0,0c0,0,0,0,0,0c0,0,0,0,0,0s0,0,0,0c0,0,0,0,0,0c0,0,0,0,0,0c0,0,0,0,0,0c0,0,0,0,0,0c0,0,0,0,0,0c0,0,0,0,0,0
		c0,0,0,0,0,0c0,0,0,0,0,0v0c0,0,0,0,0,0c0,0,0,0,0,0c0,0,0,0.1,0.1,0.1c0,0,0,0,0,0s0,0,0,0v0c0,0,0,0,0,0v0c0,0,0,0,0,0
		c0,0,0,0,0,0c0,0,0,0,0,0l0,0c0,0.1,0.1,0.1,0.1,0.2l0,0c0,0,0,0,0,0l0,0c0,0,0,0,0,0l0,0c0,0,0,0,0,0l0,0c0,0.1,0.1,0.1,0.1,0.2
		l0,0c0,0,0,0,0,0l0,0c0,0,0,0,0,0c0,0,0,0,0,0c0,0,0,0,0,0c0,0,0,0,0,0s0,0,0,0l0,0c0,0,0,0.1,0.1,0.1c0,0,0,0,0,0s0,0,0,0v0
		c0,0,0,0,0,0c0,0,0,0,0,0c0,0,0,0,0,0l0.9-0.4C149.5,289.6,149.2,288.6,148.8,287.7L148.8,287.7z M151.1,293.2l-0.9,0.4
		c0.4,0.9,0.8,1.8,1.2,2.6v0c0,0,0,0,0,0c0,0,0,0,0,0c0,0,0,0,0,0v0l0.9-0.4C151.9,295,151.5,294.1,151.1,293.2L151.1,293.2z
		 M153.6,298.6l-0.9,0.5c0.3,0.5,0.5,1.1,0.8,1.6c0,0,0,0,0,0c0,0,0,0,0,0s0,0,0,0c0,0,0,0,0,0c0,0,0,0,0,0c0,0,0,0,0,0c0,0,0,0,0,0
		c0,0,0,0,0,0c0,0,0,0,0,0v0c0,0,0,0.1,0.1,0.1l0,0c0,0,0,0,0,0l0,0c0,0,0,0,0,0l0,0c0.1,0.2,0.2,0.4,0.4,0.6l0,0c0,0,0,0,0,0.1
		l0.9-0.5C154.5,300.4,154,299.5,153.6,298.6L153.6,298.6z M156.4,303.8l-0.9,0.5l0,0c0,0,0,0,0,0l0,0c0,0,0,0,0,0l0,0c0,0,0,0,0,0
		c0,0,0,0,0,0c0,0,0,0,0,0c0,0,0,0,0,0c0,0,0,0,0,0c0,0,0,0,0,0c0,0,0,0,0,0c0,0,0,0,0,0s0,0,0,0c0,0,0,0,0,0c0,0,0,0,0,0
		c0,0,0,0,0,0l0,0c0,0,0,0,0,0.1c0,0,0,0,0,0c0,0,0,0,0,0l0,0c0,0,0,0,0,0l0,0c0,0,0,0,0,0s0,0,0,0c0,0,0,0,0,0c0,0,0,0,0,0
		c0,0,0,0,0,0l0,0c0,0,0.1,0.1,0.1,0.1l0,0c0,0,0,0,0,0c0,0,0,0,0,0c0,0,0,0,0,0l0,0c0,0,0,0,0,0l0,0c0,0.1,0.1,0.1,0.1,0.2l0,0
		c0,0,0,0,0,0l0,0c0.3,0.5,0.6,1,0.9,1.5l0.9-0.5C157.4,305.5,156.9,304.7,156.4,303.8L156.4,303.8z M159.5,308.9l-0.8,0.5
		c0.1,0.1,0.2,0.2,0.2,0.4c0,0,0,0,0,0c0,0,0,0,0,0l0,0c0,0,0,0,0,0c0,0,0,0,0,0c0,0,0,0,0,0c0,0,0,0,0,0c0,0,0,0,0,0
		c0.4,0.7,0.9,1.3,1.3,2l0.8-0.6C160.6,310.5,160.1,309.7,159.5,308.9L159.5,308.9z M162.9,313.8l-0.8,0.6c0.2,0.3,0.5,0.6,0.7,1
		l0,0c0,0,0,0,0,0c0,0,0,0,0,0s0,0,0,0c0,0,0,0,0,0c0,0,0,0,0,0l0,0c0,0,0,0,0,0c0,0,0,0,0,0c0,0,0,0,0,0c0,0,0.1,0.1,0.1,0.1l0,0
		c0,0,0,0,0,0l0,0c0,0,0,0,0,0l0,0c0.3,0.4,0.5,0.7,0.8,1.1l0.8-0.6C164.1,315.4,163.5,314.6,162.9,313.8L162.9,313.8z M166.6,318.5
		l-0.8,0.6c0,0,0,0,0.1,0.1l0,0c0,0,0,0,0,0l0,0c0,0,0,0,0,0c0,0,0,0,0,0c0,0,0,0,0,0l0,0c0,0,0,0,0.1,0.1c0,0,0,0,0,0s0,0,0,0l0,0
		c0,0,0,0,0,0c0,0,0,0,0,0c0,0,0,0,0,0c0,0,0,0,0,0c0,0,0,0,0,0c0,0,0,0,0,0c0,0,0,0,0,0c0,0,0,0,0,0l0,0c0,0,0,0,0,0c0,0,0,0,0,0
		c0,0,0,0,0,0c0,0,0,0,0,0c0,0,0,0,0,0l0,0c0,0,0,0,0,0l0,0c0,0,0,0,0,0l0,0c0,0,0,0,0,0c0,0,0,0,0,0c0,0,0.1,0.1,0.1,0.1
		c0,0,0,0,0,0c0,0,0,0,0,0c0,0,0,0,0,0c0,0,0,0,0,0c0,0,0,0,0,0c0,0,0,0,0,0l0,0c0,0,0.1,0.1,0.1,0.1l0,0c0,0,0,0,0,0c0,0,0,0,0,0
		s0,0,0,0c0,0,0,0,0,0c0,0,0,0,0,0l0,0c0,0,0.1,0.1,0.1,0.1l0,0c0,0,0,0,0,0l0,0c0,0,0,0,0,0c0,0,0,0,0,0s0,0,0,0l0,0c0,0,0,0,0,0
		l0,0c0,0,0.1,0.1,0.1,0.1l0,0c0,0,0,0,0,0l0,0c0.2,0.2,0.4,0.5,0.6,0.7l0.8-0.7C167.8,320,167.2,319.2,166.6,318.5L166.6,318.5z
		 M170.5,323l-0.7,0.7c0,0,0,0,0.1,0.1l0,0c0,0,0,0,0,0l0,0c0,0,0,0,0,0c0,0,0,0,0,0c0,0,0,0,0,0c0,0,0,0,0,0c0,0,0,0,0,0s0,0,0,0
		c0,0,0.1,0.1,0.1,0.1c0,0,0,0,0,0s0,0,0,0l0,0c0,0,0,0,0,0l0,0c0,0,0,0,0,0l0,0c0,0,0,0,0,0c0,0,0,0,0,0c0,0,0.1,0,0.1,0.1l0,0
		c0,0,0,0,0,0s0,0,0,0s0,0,0,0l0,0c0,0,0,0,0,0l0,0c0,0,0,0,0,0l0,0c0,0,0,0,0,0l0,0c0,0,0.1,0,0.1,0.1l0,0c0,0,0,0,0,0l0,0
		c0,0,0,0,0,0l0,0c0,0,0,0,0,0l0,0c0,0,0,0,0,0l0,0c0,0,0,0,0,0l0,0c0,0,0,0,0,0l0,0c0,0,0,0,0,0c0,0,0,0,0,0c0,0,0,0,0,0
		c0,0,0,0,0,0c0,0,0,0,0,0c0,0,0,0,0,0c0,0,0,0,0,0l0,0c0,0,0,0,0,0c0,0,0,0,0,0c0,0,0,0,0,0c0,0,0,0,0,0l0,0c0,0,0,0,0,0l0,0
		c0,0,0,0,0,0l0,0c0,0,0,0,0,0l0,0c0,0,0,0,0,0l0,0c0,0,0,0,0,0l0,0c0,0,0,0,0,0l0,0c0,0,0,0,0.1,0.1c0,0,0,0,0,0s0,0,0,0
		c0,0,0,0,0,0s0,0,0,0c0,0,0,0,0,0c0,0,0,0,0,0c0,0,0,0,0,0s0,0,0,0c0,0,0,0,0,0c0,0,0.1,0.1,0.1,0.1l0,0c0,0,0,0,0,0l0,0
		c0,0,0,0,0,0l0,0c0.1,0.1,0.3,0.3,0.4,0.4l0.7-0.7C171.8,324.4,171.1,323.7,170.5,323L170.5,323z M174.6,327.2l-0.7,0.7l0,0
		c0,0,0,0,0.1,0.1l0,0c0,0,0,0,0,0c0,0,0,0,0,0s0,0,0,0c0,0,0,0,0,0s0,0,0,0c0,0,0,0,0,0c0,0,0,0,0,0l0,0c0,0,0.1,0.1,0.1,0.1l0,0
		c0,0,0,0,0,0l0,0c0,0,0,0,0,0l0,0c0.1,0,0.1,0.1,0.2,0.2l0,0c0,0,0,0,0,0l0,0c0,0,0,0,0,0l0,0c0,0,0,0,0,0l0,0c0,0,0.1,0.1,0.1,0.1
		c0,0,0,0,0,0s0,0,0,0l0,0c0,0,0,0,0,0l0,0c0,0,0,0,0,0l0,0c0,0,0,0,0,0l0,0c0,0,0,0,0,0c0,0,0,0,0,0c0,0,0,0,0,0c0,0,0,0,0,0l0,0
		c0,0,0,0,0,0l0,0c0,0,0,0,0,0c0,0,0,0,0,0s0,0,0,0l0,0c0.4,0.3,0.7,0.7,1.1,1l0.7-0.7C176,328.6,175.3,327.9,174.6,327.2
		L174.6,327.2z M179,331.3l-0.7,0.8l0,0c0.5,0.5,1.1,0.9,1.6,1.4c0,0,0,0,0,0s0,0,0,0s0,0,0,0s0,0,0,0l0,0c0,0,0,0,0,0c0,0,0,0,0,0
		l0,0c0,0,0.1,0,0.1,0.1l0,0c0,0,0,0,0,0l0,0c0.1,0.1,0.3,0.2,0.4,0.4l0.6-0.8C180.5,332.6,179.7,331.9,179,331.3L179,331.3z
		 M183.5,335l-0.6,0.8c0.6,0.4,1.1,0.9,1.7,1.3l0,0c0,0,0,0,0,0c0,0,0,0,0,0c0,0,0,0,0,0l0,0c0,0,0,0,0,0c0,0,0,0,0,0c0,0,0,0,0,0
		c0,0,0,0,0,0c0,0,0,0,0,0c0,0,0.1,0,0.1,0l0,0c0,0,0,0,0,0l0,0c0,0,0,0,0,0l0,0c0.1,0.1,0.2,0.2,0.4,0.3l0.6-0.8
		C185.1,336.3,184.3,335.7,183.5,335L183.5,335z M188.3,338.6l-0.6,0.8c0,0,0.1,0,0.1,0.1l0,0c0,0,0,0,0,0l0,0c0,0,0,0,0,0l0,0
		c0,0,0.1,0,0.1,0c0,0,0,0,0,0c0,0,0,0,0,0c0,0,0,0,0,0c0,0,0,0,0,0c0,0,0,0,0,0l0,0c0,0,0,0,0,0c0,0,0,0,0,0
		c0.7,0.5,1.4,0.9,2.1,1.4l0.6-0.8C190,339.7,189.1,339.1,188.3,338.6L188.3,338.6z M193.3,341.9l-0.5,0.9c0.9,0.5,1.7,1,2.6,1.5
		l0.5-0.9C195,342.9,194.1,342.4,193.3,341.9L193.3,341.9z M198.4,344.8l-0.5,0.9c0.1,0,0.1,0.1,0.2,0.1l0,0c0,0,0,0,0,0
		c0,0,0,0,0,0c0,0,0,0,0,0s0,0,0,0c0,0,0,0,0,0c0,0,0,0,0,0c0,0,0,0,0,0c0,0,0,0,0,0c0,0,0,0,0,0c0,0,0,0,0,0c0,0,0,0,0,0
		c0,0,0.1,0,0.1,0l0,0c0,0,0,0,0,0c0,0,0,0,0,0c0,0,0,0,0,0l0,0c0,0,0,0,0,0l0,0c0.2,0.1,0.4,0.2,0.5,0.3l0,0c0,0,0,0,0,0l0,0
		c0,0,0,0,0,0l0,0c0.1,0,0.1,0.1,0.2,0.1h0c0,0,0,0,0,0c0,0,0,0,0,0c0,0,0,0,0,0c0,0,0,0,0,0c0,0,0,0,0,0c0,0,0,0,0,0c0,0,0,0,0,0
		c0,0,0,0,0,0c0,0,0,0,0,0c0,0,0,0,0,0c0,0,0,0,0,0c0,0,0,0,0,0c0,0,0,0,0,0c0,0,0,0,0,0h0c0,0,0,0,0,0c0,0,0,0,0,0c0,0,0,0,0,0h0
		c0.3,0.1,0.6,0.3,0.8,0.4l0.4-0.9C200.2,345.8,199.3,345.3,198.4,344.8L198.4,344.8z M203.7,347.5l-0.4,0.9
		c0.1,0.1,0.3,0.1,0.5,0.2l0,0c0,0,0,0,0,0l0,0c0,0,0,0,0,0l0,0c0.1,0,0.1,0,0.2,0.1h0c0,0,0,0,0,0c0,0,0,0,0,0c0,0,0,0,0,0s0,0,0,0
		c0,0,0,0,0,0l0,0c0,0,0,0,0,0s0,0,0,0c0,0,0,0,0,0s0,0,0,0c0,0,0,0,0,0c0,0,0,0,0,0c0,0,0,0,0,0c0,0,0,0,0,0c0,0,0,0,0,0
		c0,0,0,0,0,0c0,0,0,0,0,0c0,0,0,0,0,0s0,0,0,0c0,0,0,0,0,0h0c0,0,0,0,0,0c0,0,0,0,0,0c0.1,0,0.1,0.1,0.2,0.1l0,0c0,0,0,0,0,0
		c0,0,0,0,0,0c0,0,0,0,0,0l0,0c0.4,0.2,0.8,0.4,1.3,0.6l0.4-0.9C205.5,348.4,204.6,348,203.7,347.5L203.7,347.5z M209.2,349.9
		l-0.4,0.9c0.1,0.1,0.3,0.1,0.4,0.2c0,0,0,0,0,0c0,0,0,0,0,0s0,0,0,0c0,0,0,0,0,0c0,0,0,0,0,0s0,0,0,0c0,0,0,0,0,0h0c0,0,0,0,0,0
		l0,0c0.5,0.2,1,0.4,1.5,0.6l0,0c0,0,0,0,0,0h0c0,0,0,0,0,0c0,0,0,0,0,0c0,0,0,0,0,0s0,0,0,0c0,0,0,0,0,0c0,0,0,0,0,0s0,0,0,0
		c0.1,0.1,0.3,0.1,0.4,0.2l0.4-0.9C211,350.7,210.1,350.3,209.2,349.9L209.2,349.9z M214.7,352l-0.3,1c0.4,0.1,0.8,0.3,1.1,0.4l0,0
		c0,0,0,0,0,0c0,0,0,0,0,0s0,0,0,0h0c0,0,0,0,0,0h0c0,0,0,0,0,0s0,0,0,0c0,0,0,0,0,0h0c0,0,0,0,0,0h0c0,0,0,0,0.1,0c0,0,0,0,0,0
		c0,0,0,0,0,0c0,0,0,0,0,0c0,0,0,0,0,0c0,0,0,0,0,0h0c0,0,0,0,0,0s0,0,0,0c0,0,0,0,0,0h0c0,0,0,0,0,0h0c0.4,0.1,0.8,0.2,1.2,0.4
		l0.3-1C216.6,352.7,215.6,352.4,214.7,352L214.7,352z M220.4,353.8l-0.3,1c1,0.3,1.9,0.5,2.9,0.8l0.2-1
		C222.3,354.4,221.3,354.1,220.4,353.8L220.4,353.8z M226.1,355.3l-0.2,1c0.1,0,0.1,0,0.2,0h0c0,0,0,0,0,0c0,0,0,0,0,0c0,0,0,0,0,0
		c0,0,0,0,0,0c0,0,0,0,0,0c0,0,0,0,0,0c0,0,0,0,0,0c0.7,0.1,1.3,0.3,2,0.4h0c0,0,0,0,0,0h0c0,0,0,0,0,0c0,0,0,0,0,0c0,0,0,0,0,0
		c0,0,0,0,0,0c0,0,0,0,0,0c0,0,0,0,0,0c0,0,0,0,0,0c0,0,0,0,0,0h0c0.1,0,0.2,0,0.4,0.1l0.2-1C228.1,355.7,227.1,355.5,226.1,355.3
		L226.1,355.3z M232,356.4l-0.2,1c0.2,0,0.3,0.1,0.5,0.1l0,0c0,0,0,0,0,0c0,0,0,0,0,0s0,0,0,0h0c0,0,0,0,0,0h0c0,0,0,0,0,0h0
		c0,0,0,0,0,0c0,0,0,0,0,0c0,0,0,0,0,0s0,0,0,0c0,0,0,0,0,0h0c0,0,0,0,0,0h0c0,0,0,0,0,0c0,0,0,0,0,0c0,0,0,0,0,0c0,0,0,0,0,0
		c0,0,0,0,0,0c0,0,0,0,0,0c0,0,0,0,0,0c0,0,0,0,0,0c0,0,0,0,0,0c0,0,0,0,0,0s0,0,0,0c0,0,0,0,0,0s0,0,0,0c0,0,0,0,0,0s0,0,0,0
		c0,0,0,0,0,0s0,0,0,0c0,0,0.1,0,0.1,0c0,0,0,0,0,0s0,0,0,0s0,0,0,0c0,0,0,0,0,0c0,0,0,0,0,0c0,0,0,0,0,0c0,0,0,0,0,0c0,0,0,0,0,0
		c0,0,0,0,0,0c0,0,0,0,0,0c0,0,0,0,0,0s0,0,0,0c0,0,0,0,0,0c0,0,0,0,0,0c0,0,0,0,0,0c0,0,0,0,0,0c0,0,0,0,0,0c0,0,0,0,0,0
		c0.1,0,0.1,0,0.1,0l0,0c0,0,0,0,0,0l0,0c0,0,0,0,0,0c0,0,0,0,0,0s0,0,0,0h0c0,0,0,0,0,0l0,0c0.3,0,0.6,0.1,0.9,0.1l0.1-1
		C233.9,356.8,232.9,356.6,232,356.4L232,356.4z M237.9,357.3l-0.1,1c1,0.1,2,0.2,3,0.3l0.1-1C239.8,357.5,238.9,357.4,237.9,357.3
		L237.9,357.3z M243.8,357.8l-0.1,1c0.1,0,0.2,0,0.3,0l0,0c0,0,0,0,0,0h0c0,0,0,0,0,0h0c0,0,0,0,0,0h0c0,0,0,0,0,0h0c0,0,0,0,0,0
		s0,0,0,0c0,0,0,0,0,0s0,0,0,0c0,0,0,0,0,0s0,0,0,0c0,0,0,0,0,0c0,0,0,0,0,0s0,0,0,0c0,0,0,0,0,0l0,0c0,0,0,0,0.1,0c0,0,0,0,0,0
		s0,0,0,0c0,0,0,0,0,0s0,0,0,0h0c0,0,0,0,0,0h0c0,0,0,0,0,0c0,0,0,0,0,0s0,0,0,0c0,0,0,0,0,0s0,0,0,0l0,0c0,0,0,0,0,0l0,0
		c0.6,0,1.3,0,1.9,0.1l0-1C245.8,357.9,244.8,357.8,243.8,357.8L243.8,357.8z M252.7,357.9c-0.9,0-1.8,0-2.7,0h-0.3v1
		c0.1,0,0.1,0,0.2,0h0c0,0,0,0,0,0c0,0,0,0,0,0l0,0l0,0c0,0,0,0,0,0h0c0,0,0,0,0,0s0,0,0,0c0,0,0,0,0,0s0,0,0,0c0,0,0,0,0,0
		c0,0,0,0,0,0c0,0,0,0,0,0c0,0,0,0,0,0c0,0,0,0,0,0c0,0,0,0,0,0c0,0,0,0,0,0c0,0,0,0,0,0c0,0,0,0,0,0c0,0,0,0,0,0h0c0,0,0,0,0,0
		c0,0,0,0,0,0c0,0,0,0,0,0c0,0,0,0,0,0c0,0,0,0,0,0c0,0,0,0,0,0c0,0,0,0,0,0c0,0,0,0,0,0c0,0,0,0,0,0c0,0,0,0,0,0c0,0,0,0,0,0
		c0,0,0,0,0,0c0,0,0,0,0,0c0,0,0,0,0,0c0,0,0,0,0,0c0,0,0,0,0,0c0,0,0,0,0,0s0,0,0,0c0,0,0,0,0,0s0,0,0,0c0,0,0,0,0,0c0,0,0,0,0,0
		c0,0,0,0,0,0s0,0,0,0c0,0,0,0,0,0s0,0,0,0c0,0,0,0,0,0c0,0,0,0,0,0c0,0,0,0,0,0c0,0,0,0,0,0c0,0,0,0,0,0h0c0,0,0,0,0,0h0
		c0,0,0,0,0,0h0c0,0,0,0,0,0h0c0,0,0,0,0,0h0c0,0,0,0,0,0h0c0,0,0,0,0,0s0,0,0,0s0,0,0,0h0c0,0,0,0,0,0l0,0c0.1,0,0.1,0,0.2,0l0,0
		c0,0,0,0,0,0h0c0,0,0,0,0,0c0,0,0,0,0,0c0,0,0,0,0,0c0,0,0,0,0,0c0,0,0,0,0,0c0,0,0,0,0,0c0,0,0,0,0,0c0,0,0,0,0,0c0,0,0,0,0,0
		c0,0,0,0,0,0s0,0,0,0c0,0,0,0,0,0s0,0,0,0c0,0,0,0,0,0h0c0,0,0,0,0,0h0c0,0,0,0,0,0h0c0,0,0,0,0,0h0c0,0,0,0,0,0l0,0c0,0,0,0,0,0
		l0,0c0.2,0,0.4,0,0.5,0L252.7,357.9L252.7,357.9z M258.6,357.6c-1,0.1-2,0.1-3,0.2l0.1,1c0.2,0,0.3,0,0.5,0l0,0c0.1,0,0.1,0,0.2,0
		c0,0,0,0,0,0s0,0,0,0s0,0,0,0c0,0,0,0,0,0c0,0,0,0,0,0h0c0,0,0,0,0,0c0,0,0,0,0,0c0,0,0,0,0,0s0,0,0,0c0,0,0,0,0,0s0,0,0,0
		c0,0,0,0,0,0h0c0,0,0,0,0,0h0c0,0,0,0,0,0h0c0,0,0,0,0,0l0,0c0.1,0,0.2,0,0.2,0l0,0c0,0,0,0,0,0l0,0c0,0,0,0,0,0c0,0,0,0,0,0
		s0,0,0,0h0c0,0,0,0,0,0h0c0,0,0,0,0,0c0,0,0,0,0,0s0,0,0,0l0,0c0,0,0,0,0,0l0,0c0.1,0,0.1,0,0.2,0h0c0,0,0,0,0,0s0,0,0,0
		c0,0,0,0,0,0h0c0,0,0,0,0,0c0,0,0,0,0,0s0,0,0,0c0,0,0,0,0,0h0c0,0,0,0,0,0h0c0,0,0,0,0,0c0,0,0,0,0,0c0.3,0,0.5,0,0.8-0.1
		L258.6,357.6L258.6,357.6z M264.6,357c-1,0.1-2,0.2-3,0.4l0.1,1c0,0,0,0,0,0c0,0,0,0,0,0s0,0,0,0h0c0,0,0,0,0,0s0,0,0,0
		c0,0,0,0,0,0s0,0,0,0c0,0,0,0,0,0s0,0,0,0c0,0,0,0,0,0c0,0,0.1,0,0.1,0l0,0c0,0,0,0,0,0h0c0,0,0,0,0,0l0,0c0,0,0,0,0,0l0,0
		c0,0,0,0,0,0l0,0c0.8-0.1,1.6-0.2,2.5-0.3L264.6,357L264.6,357z M270.4,356c-1,0.2-2,0.4-2.9,0.5l0.2,1c0.8-0.1,1.6-0.3,2.4-0.4
		l0,0c0,0,0,0,0,0c0,0,0,0,0,0s0,0,0,0h0c0,0,0,0,0,0c0,0,0,0,0,0c0,0,0,0,0,0c0.1,0,0.3,0,0.4-0.1L270.4,356L270.4,356z
		 M276.2,354.7c-1,0.2-1.9,0.5-2.9,0.7l0.2,1h0c0,0,0,0,0,0c0,0,0,0,0,0c0,0,0,0,0,0h0c0,0,0,0,0,0l0,0c0,0,0.1,0,0.1,0l0,0
		c0,0,0,0,0,0l0,0c0,0,0,0,0,0c0,0,0,0,0,0s0,0,0,0l0,0c0,0,0,0,0,0l0,0c0.1,0,0.2,0,0.3-0.1l0,0c0,0,0,0,0,0l0,0
		c0.1,0,0.2,0,0.3-0.1l0,0c0,0,0,0,0,0c0,0,0,0,0,0s0,0,0,0h0c0,0,0,0,0,0h0c0,0,0,0,0,0h0c0,0,0,0,0,0h0c0,0,0,0,0,0c0,0,0,0,0,0
		s0,0,0,0s0,0,0,0c0,0,0,0,0,0c0,0,0,0,0,0c0,0,0,0,0,0c0,0,0,0,0,0c0,0,0,0,0,0c0,0,0,0,0,0h0c0,0,0,0,0,0h0c0,0,0,0,0,0h0
		c0,0,0,0,0,0l0,0c0.4-0.1,0.8-0.2,1.2-0.3L276.2,354.7L276.2,354.7z M282,353.1c-0.9,0.3-1.9,0.6-2.9,0.8l0.3,1
		c0.3-0.1,0.6-0.2,1-0.3l0,0c0,0,0,0,0,0h0c0,0,0,0,0,0c0,0,0,0,0,0s0,0,0,0c0,0,0,0,0,0s0,0,0,0h0c0,0,0.1,0,0.1,0l0,0c0,0,0,0,0,0
		s0,0,0,0c0,0,0,0,0,0c0,0,0,0,0,0c0,0,0,0,0,0c0,0,0,0,0,0c0,0,0,0,0,0c0,0,0,0,0,0c0,0,0,0,0,0c0,0,0,0,0,0c0,0,0,0,0,0
		c0,0,0,0,0,0c0,0,0,0,0,0c0,0,0,0,0,0c0,0,0,0,0,0h0c0,0,0,0,0,0s0,0,0,0c0,0,0,0,0,0s0,0,0,0c0,0,0,0,0,0c0,0,0,0,0,0c0,0,0,0,0,0
		s0,0,0,0c0,0,0,0,0,0c0,0,0,0,0,0c0,0,0,0,0,0c0,0,0,0,0,0c0,0,0,0,0,0s0,0,0,0c0,0,0,0,0,0l0,0c0,0,0,0,0,0c0,0,0,0,0,0s0,0,0,0h0
		c0,0,0,0,0,0h0c0,0,0,0,0,0h0c0,0,0,0,0,0h0c0,0,0,0,0,0c0,0,0,0,0,0c0.2-0.1,0.5-0.1,0.7-0.2L282,353.1L282,353.1z M287.6,351.2
		c-0.9,0.3-1.9,0.7-2.8,1l0.3,1l0,0c0,0,0,0,0,0c0,0,0,0,0,0s0,0,0,0h0c0,0,0,0,0,0c0,0,0,0,0,0s0,0,0,0c0,0,0,0,0,0s0,0,0,0l0,0
		c0,0,0.1,0,0.1,0l0,0c0,0,0,0,0,0l0,0c0,0,0,0,0,0c0,0,0,0,0,0s0,0,0,0l0,0c0,0,0,0,0,0l0,0c0.1,0,0.1,0,0.2-0.1l0,0c0,0,0,0,0,0
		l0,0c0,0,0,0,0,0l0,0c0,0,0,0,0,0l0,0c0.1,0,0.2-0.1,0.3-0.1l0,0c0,0,0,0,0,0l0,0c0,0,0,0,0,0l0,0c0.1,0,0.1,0,0.2-0.1c0,0,0,0,0,0
		s0,0,0,0h0c0,0,0,0,0,0h0c0,0,0,0,0,0h0c0,0,0,0,0,0h0c0,0,0,0,0,0l0,0c0,0,0.1,0,0.1,0c0,0,0,0,0,0c0,0,0,0,0,0l0,0c0,0,0,0,0,0
		c0,0,0,0,0,0c0,0,0,0,0,0c0,0,0,0,0,0c0,0,0,0,0,0c0,0,0,0,0,0c0,0,0,0,0,0c0,0,0,0,0,0c0,0,0,0,0,0c0.3-0.1,0.5-0.2,0.8-0.3
		L287.6,351.2L287.6,351.2z M293.1,349c-0.9,0.4-1.8,0.8-2.7,1.1l0.4,0.9c0.1,0,0.2-0.1,0.3-0.1h0c0,0,0,0,0,0s0,0,0,0c0,0,0,0,0,0
		c0,0,0,0,0,0c0,0,0,0,0,0c0,0,0,0,0,0c0,0,0,0,0,0c0,0,0,0,0,0l0,0c0.6-0.3,1.3-0.5,2-0.8l0,0c0,0,0.1,0,0.1-0.1c0,0,0,0,0,0
		s0,0,0,0c0,0,0,0,0,0h0c0,0,0,0,0,0c0,0,0,0,0,0c0,0,0.1,0,0.1,0L293.1,349L293.1,349z M298.5,346.5c-0.9,0.4-1.8,0.9-2.7,1.3
		l0.4,0.9c0.2-0.1,0.5-0.2,0.7-0.3l0,0c0,0,0,0,0,0l0,0c0,0,0,0,0,0l0,0c0.1,0,0.1-0.1,0.2-0.1l0,0c0,0,0,0,0,0h0c0,0,0,0,0,0h0
		c0,0,0,0,0,0h0c0,0,0,0,0,0c0,0,0,0,0,0c0,0,0.1,0,0.1-0.1l0,0c0,0,0,0,0,0c0,0,0,0,0,0c0,0,0,0,0,0c0,0,0,0,0,0c0,0,0,0,0,0
		c0,0,0,0,0,0c0,0,0,0,0,0c0,0,0,0,0,0c0,0,0,0,0,0c0,0,0,0,0,0c0,0,0.1,0,0.1,0c0,0,0,0,0,0c0,0,0,0,0,0c0,0,0,0,0,0c0,0,0,0,0,0
		c0,0,0,0,0,0c0,0,0,0,0,0c0,0,0,0,0,0c0,0,0,0,0,0c0,0,0,0,0,0c0,0,0,0,0,0c0,0,0,0,0,0s0,0,0,0c0,0,0,0,0.1,0c0,0,0,0,0,0
		c0,0,0,0,0,0c0,0,0,0,0,0c0,0,0,0,0,0c0,0,0,0,0,0c0,0,0,0,0,0h0c0,0,0,0,0,0l0,0c0.2-0.1,0.5-0.2,0.7-0.3L298.5,346.5L298.5,346.5
		z M303.7,343.6c-0.9,0.5-1.7,1-2.6,1.5l0.5,0.9c0,0,0,0,0,0l0,0c0,0,0,0,0,0l0,0c0.5-0.3,1.1-0.6,1.6-0.9l0,0c0,0,0,0,0,0
		c0,0,0,0,0,0c0,0,0,0,0,0c0,0,0,0,0,0c0,0,0,0,0,0c0,0,0,0,0,0c0,0,0,0,0,0c0,0,0,0,0,0c0,0,0,0,0,0c0,0,0,0,0,0l0,0c0,0,0,0,0,0
		l0,0c0,0,0,0,0,0c0,0,0,0,0,0c0,0,0,0,0,0l0,0c0.2-0.1,0.4-0.2,0.6-0.4L303.7,343.6L303.7,343.6z M308.8,340.5
		c-0.8,0.5-1.7,1.1-2.5,1.6l0.5,0.9c0.2-0.1,0.4-0.2,0.5-0.3l0,0c0.1,0,0.2-0.1,0.2-0.1l0,0c0,0,0,0,0,0l0,0c0,0,0,0,0,0l0,0
		c0,0,0,0,0,0l0,0c0.1,0,0.1-0.1,0.2-0.1l0,0c0,0,0,0,0,0c0,0,0,0,0,0c0,0,0,0,0,0c0,0,0,0,0,0c0,0,0,0,0,0l0,0c0,0,0.1,0,0.1-0.1
		l0,0c0,0,0,0,0,0c0,0,0,0,0,0c0,0,0,0,0,0l0,0c0,0,0,0,0,0c0,0,0,0,0,0c0,0,0,0,0,0c0,0,0,0,0,0c0,0,0,0,0,0l0,0c0,0,0.1,0,0.1-0.1
		c0,0,0,0,0,0c0,0,0,0,0,0l0,0c0,0,0,0,0,0c0,0,0,0,0,0c0,0,0,0,0,0c0,0,0,0,0,0c0,0,0,0,0,0c0,0,0,0,0,0c0,0,0,0,0,0c0,0,0,0,0,0
		c0,0,0,0,0,0c0,0,0,0,0,0c0,0,0,0,0,0c0,0,0,0,0,0c0,0,0,0,0,0c0,0,0,0,0,0c0,0,0,0,0,0c0,0,0,0,0,0c0,0,0,0,0,0c0,0,0,0,0,0
		c0,0,0,0,0,0c0,0,0,0,0,0c0,0,0,0,0,0c0,0,0,0,0,0c0,0,0,0,0,0c0,0,0,0,0,0c0,0,0,0,0,0c0,0,0,0,0,0l0,0c0,0,0,0,0,0c0,0,0,0,0,0
		c0,0,0,0,0,0c0,0,0,0,0,0c0,0,0,0,0,0l0,0c0,0,0,0,0,0c0,0,0,0,0,0c0,0,0,0,0,0c0,0,0,0,0,0c0,0,0,0,0,0l0,0c0,0,0,0,0,0l0,0
		c0,0,0,0,0,0l0,0c0,0,0,0,0,0c0,0,0,0,0,0c0,0,0,0,0,0c0,0,0,0,0,0L308.8,340.5L308.8,340.5z M313.7,337.2
		c-0.8,0.6-1.6,1.2-2.4,1.7l0.6,0.8c0.4-0.3,0.8-0.5,1.2-0.8c0,0,0,0,0,0c0,0,0,0,0,0c0,0,0,0,0,0s0,0,0,0c0,0,0,0,0,0c0,0,0,0,0,0
		c0,0,0,0,0,0c0,0,0,0,0,0l0,0c0,0,0,0,0,0c0,0,0,0,0,0l0,0c0,0,0,0,0,0l0,0c0,0,0,0,0,0c0,0,0,0,0,0c0,0,0,0,0,0c0,0,0,0,0,0
		c0,0,0,0,0,0l0,0c0.3-0.2,0.5-0.4,0.8-0.5l0,0c0,0,0.1-0.1,0.1-0.1L313.7,337.2L313.7,337.2z M318.4,333.5
		c-0.8,0.6-1.5,1.2-2.3,1.9l0.6,0.8c0.8-0.6,1.6-1.2,2.4-1.9L318.4,333.5L318.4,333.5z M322.9,329.6c-0.7,0.7-1.5,1.3-2.2,2l0.6,0.8
		c0.2-0.1,0.3-0.3,0.5-0.4l0,0c0,0,0,0,0,0l0,0c0,0,0,0,0,0c0,0,0,0,0,0c0,0,0,0,0,0l0,0c0,0,0.1-0.1,0.1-0.1l0,0c0,0,0,0,0,0
		c0,0,0,0,0,0s0,0,0,0s0,0,0,0s0,0,0,0c0,0,0,0,0,0c0,0,0,0,0,0l0,0c0,0,0.1-0.1,0.1-0.1h0c0,0,0,0,0,0l0,0c0,0,0,0,0,0c0,0,0,0,0,0
		s0,0,0,0l0,0c0,0,0,0,0,0l0,0c0,0,0,0,0,0l0,0c0,0,0,0,0,0c0,0,0,0,0,0c0,0,0,0,0,0l0,0c0,0,0,0,0,0c0,0,0,0,0,0c0,0,0,0,0,0
		c0,0,0,0,0,0c0,0,0,0,0,0l0,0c0,0,0,0,0,0c0,0,0,0,0,0c0,0,0,0,0,0c0,0,0,0,0,0s0,0,0,0s0,0,0,0c0,0,0,0,0,0l0,0c0,0,0,0,0,0
		c0,0,0,0,0,0c0,0,0,0,0,0c0,0,0,0,0,0c0,0,0,0,0,0c0,0,0,0,0,0c0,0,0,0,0,0c0,0,0,0,0,0c0,0,0,0,0,0c0,0,0,0,0,0l0,0c0,0,0,0,0,0
		l0,0c0,0,0,0,0,0l0,0c0,0,0,0,0,0l0,0c0,0,0,0,0,0l0,0c0,0,0,0,0,0l0,0c0,0,0.1-0.1,0.1-0.1l0,0c0,0,0,0,0,0c0,0,0,0,0,0
		c0,0,0,0,0,0l0,0c0.1-0.1,0.2-0.2,0.3-0.2L322.9,329.6L322.9,329.6z M327.1,325.5c-0.7,0.7-1.4,1.4-2.1,2.1l0.7,0.7
		c0.5-0.5,1.1-1,1.6-1.6l0,0c0,0,0,0,0,0c0,0,0,0,0,0s0,0,0,0c0,0,0,0,0,0s0,0,0,0c0,0,0,0,0,0s0,0,0,0c0,0,0,0,0,0c0,0,0,0,0.1-0.1
		l0,0c0,0,0,0,0,0l0,0c0,0,0,0,0,0c0,0,0,0,0,0l0,0c0,0,0,0,0,0l0,0c0,0,0,0,0,0c0,0,0,0,0,0c0.1-0.1,0.1-0.1,0.2-0.2L327.1,325.5
		L327.1,325.5z M331.2,321.1c-0.6,0.7-1.3,1.5-2,2.2l0.7,0.7c0.5-0.5,0.9-1,1.4-1.5l0,0c0,0,0,0,0,0c0,0,0,0,0,0c0,0,0,0,0,0
		c0,0,0,0,0,0c0,0,0,0,0.1-0.1c0,0,0,0,0,0c0,0,0,0,0,0c0,0,0,0,0,0l0,0c0,0,0,0,0,0l0,0c0,0,0,0,0,0c0,0,0,0,0,0
		c0.1-0.1,0.3-0.3,0.4-0.4L331.2,321.1L331.2,321.1z M335,316.6c-0.6,0.8-1.2,1.5-1.9,2.3l0.8,0.6c0.4-0.4,0.7-0.9,1.1-1.3
		c0,0,0,0,0,0s0,0,0,0c0,0,0,0,0,0c0,0,0,0,0,0l0,0c0,0,0,0,0,0c0,0,0,0,0,0c0,0,0,0,0,0c0.2-0.3,0.5-0.6,0.7-0.9L335,316.6
		L335,316.6z M338.5,311.8c-0.6,0.8-1.1,1.6-1.7,2.4l0.8,0.6c0.6-0.8,1.2-1.6,1.8-2.4L338.5,311.8L338.5,311.8z M341.8,306.8
		c-0.5,0.8-1.1,1.7-1.6,2.5l0.8,0.5c0.1-0.2,0.2-0.4,0.4-0.5c0,0,0,0,0,0s0,0,0,0c0,0,0,0,0,0c0,0,0,0,0,0c0,0,0,0,0,0l0,0
		c0,0,0,0,0,0c0,0,0,0,0,0c0,0,0,0,0,0l0,0c0.4-0.6,0.8-1.2,1.1-1.8L341.8,306.8L341.8,306.8z M344.8,301.7c-0.5,0.9-1,1.7-1.5,2.6
		l0.9,0.5c0.5-0.9,1-1.7,1.5-2.6l0,0L344.8,301.7L344.8,301.7z M347.5,296.4c-0.4,0.9-0.9,1.8-1.3,2.7l0.9,0.5c0,0,0,0,0,0
		c0,0,0,0,0,0s0,0,0,0c0,0,0,0,0,0c0,0,0,0,0,0c0,0,0,0,0,0c0,0,0,0,0,0c0,0,0,0,0,0c0,0,0,0,0,0c0,0,0,0,0,0c0,0,0,0,0,0
		c0,0,0,0,0,0c0,0,0-0.1,0-0.1l0,0c0,0,0,0,0,0c0,0,0,0,0,0c0,0,0,0,0,0c0,0,0,0,0,0c0,0,0,0,0,0c0,0,0,0,0,0c0,0,0,0,0,0
		c0,0,0,0,0,0c0,0,0,0,0,0c0,0,0,0,0,0c0,0,0-0.1,0.1-0.1c0,0,0,0,0,0s0,0,0,0c0,0,0,0,0,0c0,0,0,0,0,0c0,0,0,0,0,0c0,0,0,0,0,0
		c0,0,0,0,0,0c0,0,0,0,0,0c0,0,0,0,0,0c0,0,0,0,0,0c0,0,0,0,0,0c0,0,0-0.1,0-0.1c0,0,0,0,0,0c0,0,0,0,0,0c0,0,0,0,0,0c0,0,0,0,0,0
		s0,0,0,0c0,0,0,0,0,0c0,0,0,0,0,0c0,0,0,0,0,0c0,0,0,0,0,0c0,0,0,0,0,0c0,0,0,0,0,0c0,0,0,0,0,0v0c0,0,0,0,0,0c0,0,0,0,0,0
		c0,0,0,0,0,0c0,0,0,0,0,0c0,0,0,0,0,0c0,0,0,0,0,0c0,0,0,0,0,0c0,0,0,0,0,0c0,0,0,0,0,0c0,0,0,0,0,0c0,0,0,0,0,0c0,0,0,0,0,0
		c0,0,0,0,0,0c0,0,0,0,0,0c0,0,0,0,0-0.1l0,0c0,0,0,0,0,0c0,0,0,0,0,0c0,0,0,0,0,0c0,0,0,0,0,0c0,0,0,0,0,0s0,0,0,0c0,0,0,0,0,0
		s0,0,0,0c0,0,0,0,0,0s0,0,0,0c0,0,0,0,0,0c0,0,0,0,0,0c0,0,0-0.1,0.1-0.1l0,0c0,0,0,0,0,0c0,0,0,0,0,0c0,0,0,0,0,0l0,0
		c0.1-0.2,0.2-0.5,0.3-0.7L347.5,296.4L347.5,296.4z M349.9,291c-0.4,0.9-0.8,1.8-1.2,2.7l0.9,0.4c0.2-0.4,0.4-0.9,0.5-1.3v0
		c0,0,0,0,0,0s0,0,0,0c0,0,0,0,0,0c0,0,0,0,0,0c0,0,0,0,0,0c0,0,0,0,0,0c0,0,0,0,0,0c0,0,0,0,0,0v0c0.2-0.4,0.4-0.9,0.5-1.3
		L349.9,291L349.9,291z M352,285.4c-0.3,0.9-0.7,1.9-1,2.8l0.9,0.4l0,0c0,0,0,0,0,0c0,0,0,0,0,0s0,0,0,0v0c0,0,0,0,0,0v0
		c0,0,0,0,0,0v0c0,0,0,0,0,0v0c0,0,0,0,0,0c0,0,0,0,0,0c0,0,0,0,0,0l0,0c0-0.1,0-0.1,0.1-0.2l0,0c0,0,0,0,0,0l0,0
		c0.3-0.8,0.5-1.5,0.8-2.2L352,285.4L352,285.4z M353.8,279.7c-0.3,1-0.6,1.9-0.9,2.9l1,0.3c0.2-0.6,0.4-1.2,0.6-1.8l0,0
		c0,0,0,0,0,0l0,0c0-0.1,0-0.1,0-0.2c0,0,0,0,0,0c0,0,0,0,0,0s0,0,0,0c0,0,0,0,0,0c0,0,0,0,0,0c0,0,0,0,0,0c0,0,0,0,0,0v0
		c0,0,0,0,0,0v0c0.1-0.2,0.1-0.4,0.2-0.6L353.8,279.7L353.8,279.7z M355.3,274c-0.2,1-0.5,1.9-0.7,2.9l1,0.2
		c0.2-0.9,0.4-1.8,0.6-2.7v0c0,0,0,0,0,0c0,0,0,0,0,0c0,0,0,0,0,0c0,0,0,0,0,0c0,0,0,0,0,0c0,0,0,0,0,0c0,0,0,0,0,0c0,0,0,0,0,0v0
		c0,0,0,0,0,0l0,0L355.3,274L355.3,274z M356.4,268.1c-0.2,1-0.4,2-0.5,2.9l1,0.2c0,0,0,0,0,0v0c0,0,0,0,0,0v0c0,0,0,0,0,0
		c0,0,0,0,0,0c0,0,0,0,0,0c0,0,0,0,0,0l0,0c0,0,0,0,0,0l0,0c0,0,0,0,0,0l0,0c0,0,0,0,0,0l0,0c0,0,0,0,0,0c0,0,0,0,0,0s0,0,0,0l0,0
		c0.1-0.4,0.2-0.9,0.2-1.3l0,0c0,0,0,0,0,0l0,0c0,0,0,0,0,0l0,0c0,0,0,0,0,0l0,0c0-0.1,0-0.2,0-0.3l0,0c0,0,0,0,0,0l0,0c0,0,0,0,0,0
		l0,0c0,0,0,0,0,0l0,0c0-0.2,0.1-0.5,0.1-0.7L356.4,268.1L356.4,268.1z M357.2,262.3c-0.1,1-0.2,2-0.4,3l1,0.1
		c0.1-0.7,0.2-1.4,0.3-2.2l0,0c0,0,0,0,0,0l0,0c0,0,0,0,0,0c0,0,0,0,0,0s0,0,0,0v0c0,0,0,0,0,0s0,0,0,0c0,0,0,0,0,0
		c0-0.2,0-0.4,0.1-0.6L357.2,262.3L357.2,262.3z M357.8,256.3c-0.1,1-0.1,2-0.2,3l1,0.1c0.1-0.7,0.1-1.3,0.1-2v0c0,0,0,0,0,0
		s0,0,0,0c0,0,0,0,0,0c0,0,0,0,0,0s0,0,0,0c0,0,0,0,0,0v0c0,0,0,0,0,0v0c0,0,0,0,0,0l0,0c0-0.2,0-0.5,0-0.7L357.8,256.3L357.8,256.3
		z M357.9,250.4c0,1,0,2,0,3l1,0c0-0.3,0-0.7,0-1c0,0,0,0,0,0s0,0,0,0c0,0,0,0,0,0c0,0,0,0,0,0c0,0,0,0,0,0c0,0,0,0,0,0c0,0,0,0,0,0
		v0c0,0,0,0,0,0v0c0,0,0,0,0,0c0,0,0,0,0,0s0,0,0,0v0c0,0,0,0,0,0l0,0c0-0.3,0-0.7,0-1c0,0,0,0,0,0s0,0,0,0s0,0,0,0c0,0,0,0,0,0
		c0,0,0,0,0,0v0c0,0,0,0,0,0v0c0,0,0,0,0,0l0,0c0-0.1,0-0.3,0-0.4L357.9,250.4L357.9,250.4z M358.8,244.4l-1,0.1c0,1,0.1,2,0.1,3
		l1,0c0-0.8,0-1.7-0.1-2.5c0,0,0,0,0,0c0,0,0,0,0,0c0,0,0,0,0,0c0,0,0,0,0,0c0,0,0,0,0,0v0c0,0,0,0,0,0v0c0,0,0,0,0,0c0,0,0,0,0,0
		s0,0,0,0l0,0C358.8,244.6,358.8,244.5,358.8,244.4L358.8,244.4z M358.3,238.4l-1,0.1c0.1,1,0.2,2,0.3,3l1-0.1
		c-0.1-0.9-0.1-1.7-0.2-2.5l0,0c0,0,0,0,0,0l0,0c0-0.1,0-0.2,0-0.2l0,0c0,0,0,0,0,0s0,0,0,0C358.3,238.5,358.3,238.5,358.3,238.4
		C358.3,238.5,358.3,238.5,358.3,238.4C358.3,238.5,358.3,238.5,358.3,238.4C358.3,238.4,358.3,238.4,358.3,238.4L358.3,238.4
		L358.3,238.4z M357.5,232.5l-1,0.2c0.2,1,0.3,2,0.4,2.9l1-0.1c0-0.2-0.1-0.5-0.1-0.7l0,0c0-0.1,0-0.1,0-0.2c0,0,0,0,0,0s0,0,0,0v0
		c0,0,0,0,0,0s0,0,0,0c0,0,0,0,0,0c0,0,0,0,0,0c0,0,0,0,0,0c0,0,0,0,0,0c0,0,0,0,0,0c0,0,0,0,0,0c0,0,0,0,0,0c0,0,0,0,0,0
		c0,0,0,0,0,0c0,0,0,0,0,0s0,0,0,0c0,0,0,0,0,0v0c0,0,0-0.1,0-0.1v0c0,0,0,0,0,0v0c0,0,0,0,0,0v0c0,0,0,0,0,0s0,0,0,0c0,0,0,0,0,0
		s0,0,0,0c0,0,0,0,0,0s0,0,0,0c0,0,0,0,0,0s0,0,0,0c0,0,0,0,0,0v0c0,0,0,0,0,0v0c0,0,0-0.1,0-0.1c0,0,0,0,0,0c0,0,0,0,0,0
		c0,0,0,0,0,0c0,0,0,0,0,0c0,0,0,0,0,0s0,0,0,0c0,0,0,0,0,0c0,0,0,0,0,0c0,0,0,0,0,0c0,0,0,0,0,0c0,0,0,0,0,0s0,0,0,0c0,0,0,0,0,0
		c0,0,0,0,0,0c0,0,0,0,0,0v0c0,0,0,0,0,0l0,0c0-0.1,0-0.1,0-0.2l0,0c0,0,0,0,0,0l0,0c0,0,0,0,0,0l0,0
		C357.6,232.7,357.5,232.6,357.5,232.5L357.5,232.5z M356.4,226.6l-1,0.2c0.2,1,0.4,1.9,0.6,2.9l1-0.2c0-0.2-0.1-0.5-0.1-0.7l0,0
		c0,0,0,0,0,0l0,0c0,0,0,0,0,0l0,0c0,0,0,0,0,0l0,0c0,0,0,0,0,0l0,0c0-0.1,0-0.1,0-0.2v0c0,0,0,0,0,0c0,0,0,0,0,0s0,0,0,0v0
		c0,0,0,0,0,0v0c0,0,0,0,0,0v0c0,0,0,0,0,0v0c0,0,0,0,0,0c0,0,0,0,0,0c0,0,0-0.1,0-0.1c0,0,0,0,0,0c0,0,0,0,0,0c0,0,0,0,0,0
		c0,0,0,0,0,0c0,0,0,0,0,0c0,0,0,0,0,0c0,0,0,0,0,0c0,0,0,0,0,0c0,0,0,0,0,0c0,0,0,0,0,0c0,0,0,0,0,0c0,0,0,0,0,0c0,0,0,0,0,0
		c0,0,0,0,0,0c0-0.1,0-0.1,0-0.1l0,0c0,0,0,0,0,0c0,0,0,0,0,0s0,0,0,0c0,0,0,0,0,0s0,0,0,0l0,0c0,0,0,0,0,0l0,0
		C356.5,227.1,356.5,226.9,356.4,226.6L356.4,226.6z M355,220.8l-1,0.3c0.3,0.9,0.5,1.9,0.8,2.9l1-0.2
		C355.5,222.7,355.2,221.7,355,220.8L355,220.8z M353.2,215l-1,0.3c0.3,0.9,0.6,1.9,0.9,2.8l1-0.3c-0.1-0.4-0.2-0.8-0.4-1.1l0,0
		c0,0,0,0,0,0c0,0,0,0,0,0s0,0,0,0v0c0,0,0,0,0,0v0c0,0,0,0,0,0v0c0,0,0-0.1,0-0.1v0c0,0,0,0,0,0c0,0,0,0,0,0c0,0,0,0,0,0
		c0,0,0,0,0,0c0,0,0,0,0,0c0,0,0,0,0,0s0,0,0,0c0,0,0,0,0,0v0c0,0,0,0,0,0v0c0,0,0,0,0,0l0,0c0-0.1,0-0.1-0.1-0.2l0,0
		C353.4,215.7,353.3,215.4,353.2,215L353.2,215z M351.1,209.4l-0.9,0.4c0.4,0.9,0.7,1.9,1.1,2.8l0.9-0.4
		C351.9,211.2,351.5,210.3,351.1,209.4L351.1,209.4z M348.7,203.9l-0.9,0.4c0.4,0.9,0.8,1.8,1.2,2.7l0.9-0.4
		C349.6,205.7,349.1,204.8,348.7,203.9L348.7,203.9z M346,198.5l-0.9,0.5c0.5,0.9,0.9,1.8,1.4,2.6l0.9-0.4c-0.2-0.5-0.5-0.9-0.7-1.4
		c0,0,0,0,0,0s0,0,0,0c0,0,0,0,0,0c0,0,0,0,0,0c0,0,0,0,0,0c0,0,0,0,0,0c0,0,0,0,0,0l0,0c0,0,0,0,0,0c0,0,0,0,0,0
		C346.4,199.2,346.2,198.9,346,198.5L346,198.5z M343,193.3l-0.9,0.5c0.5,0.8,1,1.7,1.5,2.6l0.9-0.5c-0.1-0.2-0.2-0.4-0.3-0.6
		c0,0,0,0,0,0c0,0,0,0,0,0c0,0,0,0,0,0c0,0,0,0,0,0l0,0c0,0,0,0,0,0c0,0,0,0,0,0c0,0,0,0,0,0c0,0,0-0.1,0-0.1c0,0,0,0,0,0
		c0,0,0,0,0,0l0,0c0,0,0,0,0,0c0,0,0,0,0,0c0,0,0,0,0,0l0,0C343.7,194.4,343.4,193.9,343,193.3L343,193.3z M339.8,188.3l-0.8,0.6
		c0.6,0.8,1.1,1.6,1.6,2.5l0.8-0.5c-0.2-0.4-0.5-0.8-0.7-1.1l0,0c0,0,0,0,0,0l0,0c0-0.1-0.1-0.1-0.1-0.1l0,0c0,0,0,0,0,0l0,0
		c0,0,0,0,0,0c0,0,0,0,0,0c0,0,0,0,0,0c0,0,0,0,0,0c0,0,0,0,0,0c0,0,0,0,0,0c0,0,0,0,0,0c0,0,0,0,0,0c0,0,0,0,0,0c0,0,0,0,0,0l0,0
		c0,0,0,0,0,0c0,0,0,0,0,0s0,0,0,0c0,0,0,0,0,0c0,0,0,0,0,0c0,0,0,0,0,0c0,0,0,0,0,0c0,0,0,0,0,0c0,0,0,0,0,0l0,0
		c0-0.1-0.1-0.1-0.1-0.1c0,0,0,0,0,0s0,0,0,0v0c0,0,0,0,0,0c0,0,0,0,0,0c0,0,0,0,0,0l0,0c0,0,0-0.1-0.1-0.1l0,0c0,0,0,0,0,0l0,0
		c0,0,0,0,0,0c0,0,0,0,0,0c0,0,0,0,0,0c0,0,0,0,0,0c0,0,0,0,0,0c0,0,0,0,0,0c0,0,0,0,0,0c0,0,0,0,0,0l0,0c0,0,0,0,0-0.1l0,0
		c0,0,0,0,0,0l0,0c0,0,0,0,0,0l0,0C339.8,188.3,339.8,188.3,339.8,188.3L339.8,188.3z M336.2,183.4l-0.8,0.6
		c0.6,0.8,1.2,1.6,1.8,2.4l0.8-0.6c-0.3-0.5-0.7-0.9-1-1.4l0,0c0,0,0,0,0,0c0,0,0,0,0,0s0,0,0,0c0,0,0,0,0,0c0,0,0,0,0,0
		c0,0,0,0,0,0c0,0,0,0,0,0c0,0,0,0,0,0c0,0,0,0,0,0c0,0,0,0,0,0c0,0,0,0,0,0l0,0c0,0,0,0,0,0c0,0,0,0,0,0c0,0,0,0,0,0c0,0,0,0,0,0
		c0,0,0,0,0,0c0,0,0,0,0,0c0,0,0,0,0,0c0,0,0,0,0,0l0,0c0,0,0,0,0,0l0,0c0,0,0,0,0,0l0,0c0,0,0,0,0,0c0,0,0,0,0,0c0,0,0,0,0,0l0,0
		c0,0,0,0,0,0c0,0,0,0,0,0s0,0,0,0c0,0,0,0,0,0c0,0,0,0,0,0v0c0,0-0.1-0.1-0.1-0.1l0,0c0,0,0,0,0,0c0,0,0,0,0,0s0,0,0,0l0,0
		c0,0,0,0,0,0c0,0,0,0,0,0c0,0,0,0,0,0l0,0C336.3,183.5,336.3,183.5,336.2,183.4L336.2,183.4L336.2,183.4z M332.5,178.8l-0.8,0.6
		c0.6,0.8,1.3,1.5,1.9,2.3l0.8-0.6c-0.2-0.2-0.4-0.4-0.5-0.6l0,0c0,0,0,0,0,0c0,0,0,0,0,0s0,0,0,0c0,0,0,0,0,0c0,0,0,0,0,0l0,0
		c0,0,0,0,0,0c0,0,0,0,0,0c0,0,0,0,0,0c0,0,0,0,0,0c0,0,0,0,0,0s0,0,0,0l0,0c0,0,0,0,0,0l0,0c0,0,0,0,0,0c0,0,0,0,0,0c0,0,0,0,0,0
		l0,0c-0.3-0.4-0.6-0.8-1-1.1l0,0c0,0,0,0,0,0c0,0,0,0,0,0s0,0,0,0l0,0C332.5,178.9,332.5,178.9,332.5,178.8L332.5,178.8
		C332.5,178.9,332.5,178.9,332.5,178.8C332.4,178.8,332.4,178.8,332.5,178.8C332.5,178.8,332.5,178.8,332.5,178.8L332.5,178.8z
		 M328.4,174.4l-0.7,0.7c0.7,0.7,1.4,1.4,2,2.2l0.7-0.7C329.8,175.8,329.1,175.1,328.4,174.4L328.4,174.4z M324.1,170.2l-0.7,0.7
		c0.7,0.7,1.5,1.4,2.1,2.1l0.7-0.7l0,0l0,0c0,0,0,0,0,0s0,0,0,0s0,0,0,0l0,0c-0.6-0.6-1.1-1.1-1.7-1.7l0,0c0,0,0,0,0,0l0,0l0,0l0,0
		c0,0,0,0,0,0c0,0,0,0,0,0c0,0,0,0,0,0C324.3,170.3,324.2,170.2,324.1,170.2L324.1,170.2z M319.6,166.2L319,167
		c0.8,0.6,1.5,1.3,2.3,1.9l0.7-0.8c-0.1-0.1-0.1-0.1-0.2-0.2l0,0c0,0,0,0,0,0c0,0,0,0,0,0c0,0,0,0,0,0c0,0,0,0,0,0l0,0c0,0,0,0,0,0
		l0,0C320.9,167.3,320.3,166.8,319.6,166.2L319.6,166.2z M314.9,162.5l-0.6,0.8c0.8,0.6,1.6,1.2,2.4,1.8l0.6-0.8l0,0c0,0,0,0,0,0h0
		c0,0,0,0,0,0l0,0c0,0,0,0,0,0c0,0,0,0,0,0s0,0,0,0l0,0c0,0,0,0,0,0c0,0,0,0,0,0c0,0,0,0,0,0l0,0c0,0,0,0,0,0l0,0c0,0,0,0,0,0l0,0
		c0,0,0,0,0,0l0,0c0,0,0,0,0,0c0,0,0,0,0,0c0,0,0,0,0,0l0,0c0,0,0,0,0,0c0,0,0,0,0,0c0,0,0,0-0.1-0.1c0,0,0,0,0,0c0,0,0,0,0,0l0,0
		c0,0,0,0,0,0c0,0,0,0,0,0c0,0,0,0,0,0c0,0,0,0,0,0c0,0,0,0,0,0l0,0c0,0,0,0,0,0c0,0,0,0,0,0c0,0,0,0-0.1-0.1l0,0c0,0,0,0,0,0l0,0
		c0,0,0,0,0,0c0,0,0,0,0,0c0,0,0,0,0,0c0,0,0,0,0,0c0,0,0,0,0,0l0,0c0,0,0,0,0,0c0,0,0,0,0,0c0,0,0,0,0,0l0,0c0,0,0,0,0,0s0,0,0,0
		c0,0,0,0,0,0c0,0,0,0,0,0c0,0,0,0,0,0c0,0,0,0,0,0c0,0,0,0,0,0c0,0,0,0,0,0l0,0c0,0,0,0,0,0l0,0c0,0,0,0-0.1-0.1l0,0c0,0,0,0,0,0
		c0,0,0,0,0,0c0,0,0,0,0,0c0,0,0,0,0,0c0,0,0,0,0,0c0,0,0,0,0,0s0,0,0,0l0,0C315.5,163,315.2,162.7,314.9,162.5L314.9,162.5z
		 M310,159.1l-0.5,0.8c0.8,0.5,1.6,1.1,2.5,1.7l0.6-0.8h0c0,0,0,0,0,0c0,0,0,0,0,0c0,0,0,0,0,0c0,0,0,0-0.1-0.1c0,0,0,0,0,0
		c0,0,0,0,0,0c0,0,0,0,0,0c0,0,0,0,0,0c0,0,0,0,0,0c0,0,0,0,0,0l0,0c-0.6-0.4-1.2-0.8-1.8-1.2l0,0c0,0,0,0,0,0c0,0,0,0,0,0
		c0,0,0,0,0,0l0,0c0,0,0,0,0,0l0,0c0,0,0,0,0,0c0,0,0,0,0,0c0,0,0,0,0,0c0,0,0,0,0,0l0,0c0,0,0,0,0,0h0c0,0,0,0,0,0c0,0,0,0,0,0
		c0,0,0,0,0,0l0,0C310.1,159.1,310,159.1,310,159.1L310,159.1z M304.9,155.9l-0.5,0.9c0.9,0.5,1.7,1,2.5,1.5l0.5-0.9
		c-0.5-0.3-1-0.6-1.4-0.9c0,0,0,0,0,0c0,0,0,0,0,0c0,0,0,0,0,0l0,0c0,0,0,0,0,0c0,0,0,0,0,0c0,0,0,0,0,0c0,0,0,0,0,0c0,0,0,0,0,0
		l0,0C305.5,156.3,305.2,156.1,304.9,155.9L304.9,155.9z M299.6,153l-0.5,0.9c0.9,0.4,1.8,0.9,2.6,1.4l0.5-0.9c0,0-0.1-0.1-0.1-0.1
		l0,0c-0.1,0-0.1-0.1-0.2-0.1l0,0c0,0,0,0,0,0l0,0c0,0,0,0,0,0c0,0,0,0,0,0c0,0,0,0,0,0l0,0c-0.1-0.1-0.2-0.1-0.2-0.1l0,0
		c-0.3-0.2-0.6-0.3-0.9-0.5l0,0c0,0,0,0,0,0l0,0c0,0,0,0,0,0c0,0,0,0,0,0c0,0,0,0,0,0l0,0c0,0-0.1-0.1-0.1-0.1c0,0,0,0,0,0
		c0,0,0,0,0,0c0,0,0,0,0,0c0,0,0,0,0,0c0,0,0,0,0,0c0,0,0,0,0,0c0,0,0,0,0,0l0,0c0,0,0,0,0,0h0C300,153.2,299.8,153.1,299.6,153
		L299.6,153z M294.2,150.4l-0.4,0.9c0.9,0.4,1.8,0.8,2.7,1.2l0.4-0.9c0,0,0,0,0,0s0,0,0,0c0,0,0,0,0,0c0,0,0,0,0,0h0
		c-0.1,0-0.1-0.1-0.2-0.1l0,0c-0.6-0.3-1.2-0.6-1.9-0.9l0,0c0,0,0,0,0,0c0,0,0,0,0,0c0,0,0,0,0,0s0,0,0,0c0,0,0,0,0,0c0,0,0,0,0,0
		c0,0,0,0,0,0c0,0,0,0,0,0c0,0,0,0,0,0C294.5,150.5,294.4,150.5,294.2,150.4L294.2,150.4z M288.7,148.1l-0.4,0.9
		c0.9,0.4,1.9,0.7,2.8,1.1l0.4-0.9C290.5,148.9,289.6,148.5,288.7,148.1L288.7,148.1z M283,146.2l-0.3,0.9c0.9,0.3,1.9,0.6,2.8,0.9
		l0.3-0.9c-0.3-0.1-0.6-0.2-0.9-0.3l0,0c0,0,0,0,0,0h0c0,0,0,0,0,0s0,0,0,0c0,0,0,0,0,0s0,0,0,0c0,0,0,0,0,0c0,0,0,0,0,0
		c0,0,0,0,0,0c0,0,0,0,0,0c0,0,0,0,0,0c0,0-0.1,0-0.1,0h0c0,0,0,0,0,0h0c0,0,0,0,0,0h0c0,0,0,0,0,0h0c0,0,0,0,0,0h0c0,0,0,0,0,0
		c0,0,0,0,0,0s0,0,0,0l0,0c0,0-0.1,0-0.1-0.1c0,0,0,0,0,0s0,0,0,0h0c0,0,0,0,0,0h0c0,0,0,0,0,0h0c0,0,0,0,0,0h0c0,0,0,0,0,0h0
		c0,0-0.1,0-0.1,0c0,0,0,0,0,0s0,0,0,0s0,0,0,0c0,0,0,0,0,0c0,0,0,0,0,0c0,0,0,0,0,0c0,0,0,0,0,0c0,0,0,0,0,0c0,0,0,0,0,0h0
		c0,0,0,0,0,0c0,0,0,0,0,0C283.5,146.3,283.2,146.2,283,146.2L283,146.2z M277.2,144.5l-0.2,1c1,0.2,1.9,0.5,2.9,0.8l0.3-1
		c-0.7-0.2-1.4-0.4-2.1-0.6l0,0c0,0,0,0,0,0l0,0c0,0,0,0,0,0c0,0,0,0,0,0s0,0,0,0c0,0,0,0,0,0c0,0-0.1,0-0.1,0c0,0,0,0,0,0
		c0,0,0,0,0,0c0,0,0,0,0,0h0c0,0,0,0,0,0h0c0,0,0,0,0,0h0c0,0,0,0,0,0c0,0,0,0,0,0C277.5,144.6,277.4,144.5,277.2,144.5L277.2,144.5
		z M271.4,143.2l-0.2,1c1,0.2,2,0.4,2.9,0.6l0.2-1C273.4,143.6,272.4,143.4,271.4,143.2L271.4,143.2z M265.5,142.2l-0.1,1
		c1,0.1,2,0.3,2.9,0.5l0.2-1c-0.9-0.1-1.7-0.3-2.6-0.4l0,0c0,0,0,0,0,0c0,0,0,0,0,0s0,0,0,0h0c0,0,0,0,0,0s0,0,0,0c0,0,0,0,0,0
		s0,0,0,0c0,0,0,0,0,0c0,0,0,0,0,0s0,0,0,0C265.6,142.2,265.5,142.2,265.5,142.2L265.5,142.2z M259.5,141.5l-0.1,1
		c1,0.1,2,0.2,3,0.3l0.1-1c-0.4-0.1-0.8-0.1-1.3-0.1l0,0c0,0,0,0,0,0h0c0,0,0,0,0,0c0,0,0,0,0,0s0,0,0,0h0c0,0,0,0,0,0h0
		c0,0,0,0,0,0s0,0,0,0s0,0,0,0h0c0,0,0,0,0,0c0,0,0,0,0,0s0,0,0,0s0,0,0,0c0,0,0,0,0,0c0,0,0,0,0,0c0,0,0,0,0,0c0,0,0,0,0,0s0,0,0,0
		c0,0,0,0,0,0s0,0,0,0c0,0,0,0,0,0h0c0,0,0,0,0,0h0c0,0,0,0,0,0h0c0,0,0,0,0,0h0c0,0,0,0,0,0l0,0c-0.1,0-0.1,0-0.2,0l0,0
		c0,0,0,0,0,0l0,0c0,0,0,0,0,0h0c0,0,0,0,0,0h0c0,0,0,0,0,0h0c0,0,0,0,0,0h0c0,0,0,0,0,0h0c0,0,0,0,0,0h0c0,0,0,0,0,0h0
		c0,0-0.1,0-0.1,0c0,0,0,0,0,0s0,0,0,0c0,0,0,0,0,0s0,0,0,0c0,0,0,0,0,0c0,0,0,0,0,0c0,0,0,0,0,0h0c0,0,0,0,0,0h0c0,0,0,0,0,0h0
		C259.5,141.5,259.5,141.5,259.5,141.5L259.5,141.5L259.5,141.5z M253.5,141.1l0,1c1,0,2,0.1,3,0.1l0.1-1c-0.1,0-0.2,0-0.4,0l0,0
		c0,0,0,0,0,0l0,0c0,0,0,0,0,0h0c0,0,0,0,0,0h0c0,0,0,0,0,0h0c0,0,0,0,0,0h0c0,0,0,0,0,0s0,0,0,0c0,0,0,0,0,0s0,0,0,0c0,0,0,0,0,0
		c-0.1,0-0.1,0-0.1,0c0,0,0,0,0,0s0,0,0,0h0c0,0,0,0,0,0c0,0,0,0,0,0s0,0,0,0c0,0,0,0,0,0s0,0,0,0l0,0c0,0,0,0,0,0l0,0
		C254.8,141.2,254.2,141.1,253.5,141.1L253.5,141.1z M250,141.1v1h0.5v-1C250.4,141.1,250.2,141.1,250,141.1L250,141.1
		C250.1,141.1,250.1,141.1,250,141.1L250,141.1C250,141.1,250,141.1,250,141.1L250,141.1z"/>
</g>
<g>
	<path class="st1" d="M250,168.1c45.1,0,81.9,36.7,81.9,81.9s-36.7,81.9-81.9,81.9s-81.9-36.7-81.9-81.9S204.9,168.1,250,168.1
		 M250,167.8c-45.4,0-82.2,36.8-82.2,82.2s36.8,82.2,82.2,82.2s82.2-36.8,82.2-82.2S295.4,167.8,250,167.8L250,167.8z"/>
</g>
<circle class="st1" cx="414.5" cy="120.8" r="12.3"/>
<circle class="st1" cx="347.9" cy="297.8" r="19.7"/>
<circle class="st1" cx="112.6" cy="317.6" r="18.5"/>
<circle class="st1" cx="117.6" cy="120.8" r="12.3"/>
<circle class="st1" cx="327.7" cy="223" r="4.5"/>
</svg>
